<svg xmlns="http://www.w3.org/2000/svg" viewBox="0 0 765.78 554.65"><defs><style>.cls-1{fill:#090c0d;}.cls-2{fill:#08090a;}.cls-3{fill:#fdfdfd;}.cls-4{fill:#fcfcfc;}.cls-5{fill:#fbfbfb;}.cls-6{fill:#4ab2e4;}.cls-7{fill:#f8f8f8;}.cls-8{fill:#4db7e9;}.cls-9{fill:#44a6d7;}.cls-10{fill:#47abdd;}.cls-11{fill:#51bff0;}.cls-12{fill:#419fcf;}.cls-13{fill:#4fbbee;}.cls-14{fill:#3d97c6;}.cls-15{fill:#46a9db;}.cls-16{fill:#3b93c1;}.cls-17{fill:#378ab7;}.cls-18{fill:#327fac;}.cls-19{fill:#2d75a1;}.cls-20{fill:#398fbd;}.cls-21{fill:#e0e0e0;}.cls-22{fill:#0d1112;}.cls-23{fill:#3e9ac9;}.cls-24{fill:#4e4e4e;}.cls-25{fill:#e9e9e9;}</style></defs><g id="Layer_2" data-name="Layer 2"><g id="Layer_1-2" data-name="Layer 1"><path class="cls-1" d="M84.11,101.19c.08-6.15.91-6.94,6.9-6.73,2,.07,4,0,6.06,0L94.72,87.7l.7-1.39L66.26,81.62l1.94-2.15c-5.41-3.87-.09-4.92,2.14-7.41H48.89V63.12l-20.78,2.7V57.19c-4.55.47-9.33.55-13.91,1.56-3.8.83-4.94-1.8-6.29-3.94-.24-.38,2.18-2.63,3.56-3.78,1.19-1,2.65-1.67,3.69-3.41a45.23,45.23,0,0,1-6.61.7C6,48.23,2.8,48.44,1,47.06-1.1,45.49.42,37.25,2.83,35.81,7.5,33,12.41,30.64,17.27,28.2a36.72,36.72,0,0,1,4.58-1.61c-.09-7.43.67-8.81,8.11-8.62,7.17.18,14.31,1.76,21.85,2.77.6-4.75,4.34-5,8.33-3.5,7.09,2.64,14,5.69,20.93,8.52.76-1.05,1.7-3.69,3.33-4.23s4.11.79,5.7,2c4.21,3.19,8.14,6.77,12.12,10.14,3-5.4,4.49-5.8,9.38-1.42,3.31,3,6.15,6.47,9.47,10a5.74,5.74,0,0,1,.34-1.8c.75-1.35,1.41-3.35,2.55-3.73s3.16.6,4.15,1.61a82.54,82.54,0,0,1,18,29c.7,1.85,1.34,3.73,1.9,5.3l7.88-.91c.4-1.34.56-3.89,1.86-5.56,1.07-1.37,3.48-1.7,5.66-2.65,2.36-5.49,4.8-11.66,7.72-17.59.83-1.67,3.06-3.55,4.72-3.62,1.37-.06,2.85,2.41,4,3.5,2.17-3.76,4.44-8.33,7.31-12.48,3.25-4.7,5.56-4.58,9-.4,3-4.05,5.9-8.3,9.2-12.17,4-4.65,6.14-4.32,8.84.1,6.3-4.68,12.48-9.7,19.11-14C238.46,3.45,239.31,4,242,8c7.43-2.58,14.43-5.54,21.72-7.4,6.19-1.57,7.62,0,8.3,5.71,6.45,1.37,12.82,2.4,19,4.14,4.6,1.29,5.65,4.32,4.39,10.49-.74,3.62-3.73,3.63-6.65,3.77a13.74,13.74,0,0,0-6.14,1.74,30,30,0,0,1,5.38,1.3c1.56.69,2.87,2,5.28,3.72l-7.36.61-.24.66c1.21.42,2.42.81,3.62,1.26s2.43,1,3.49,1.41l-18.3,2,.85,9.31-19,1.57c.27,4.59.46,7.83.58,10l-21.09,2.78c7.59,5.62,7.59,5.62,3.22,8.32l2.18,1.29c-.88,2.2-1.65,4.12-2.62,6.51,5.35-.8,9.71-1.59,14.1-2.07,7.47-.83,7.92-.4,8.66,6.31,7.45,1.19,14.75,2.26,22,3.57,3.92.7,6.94,2.54,5.91,7.88,9.94,0,19.38-.19,28.8.06,6.29.17,12.69.34,18.82,1.59,14.29,2.9,21.49,11,21.9,25.58.54,19,.27,37.94-.05,56.9-.05,3.16-2.13,6.29-3.42,9.85,3.29,1.4,3.73,5.39,3.72,9.73-.05,21.14-.15,42.28.05,63.41.09,9.93-4.06,18.43-8.43,26.75-3.25,6.18-9.64,8.37-16.23,9.51-2.93.51-5.9.74-8.61,1.07v43.39q0,67.65,0,135.31-.06,32.58-.59,65.16c0,2.13-1.93,4.19-2.82,6.34s-1.66,4.44-2.65,7.12H189.1c-2.14-3.33-4.15-5.87-5.47-8.73a16.8,16.8,0,0,1-1.27-6.73c-.12-15,0-30-.19-44.93,0-1.69-1.33-3.36-2-5l-1.94-.34,4.11-1.7c-8.27-3.67-8.63-4.47-8.1-15.14-4.64-3.67-9.74-6.38-12.93-10.56-4-5.33-8.94-10.74-8.06-18.57.48-4.25,2.16-6,6.27-5.3a11.38,11.38,0,0,0,5.33-.57c-3.83-2.79-7.85-4.94-7.2-10.51.08-.7-2.4-1.52-3.4-2.57-2.07-2.14-6.74-2.53-5.11-7.38.16-.49-1.06-1.63-1.82-2.23-4.13-3.27-3.85-7.91-3.65-12.33.16-3.66,3.24-5.18,6.75-3.93q12.27,4.38,24.59,8.61c2.5.86,6.94-2.7,7.28-5.75a33.84,33.84,0,0,0,0-3.49c0-29.3-.06-58.59.06-87.88,0-4.59,1.26-9.19,1.16-13.76-.06-3.4-1.19-6.82-2.17-10.13-9.29-31.75-17.54-63.75-23.46-96.32-.24-1.35-2.16-2.62-3.56-3.47-2.89-1.74-6-3.18-9.68-5.13-9.52,5.69-17.85,14-25.86,24.35V193.94c-5.9,1-16.09,17.38-21.2,34.28-1.57-4.95-2.83-8.91-4.43-14C86,223,84,231.57,83.3,241.47c-1.88-2.42-3.77-4.83-6-7.7-4.79,7.3-6,15.62-7.24,24.89-1.55-2.9-3.11-5.81-4.93-9.19-5.68,7.48-5.09,16.68-7.2,25.27-4.16-11.4-11.58-21.85-8.63-35.65-6.41,1.56-7.7-2.06-6.74-6.59a117.38,117.38,0,0,1,5.12-17.44c1.15-3,3.22-5.53,2.26-9.11-1.41-5.24,1.31-9.26,4.38-13.08a7.93,7.93,0,0,1,1.32-1.5c8.15-6.12,10.72-13.79,5.88-23.45-5.64-.83-12.55,6.4-16.7,17.5L41.64,176c-7.19,4.95-13.29,10.61-15,19.87l-1.19-.16c-.47-3.27-.95-6.54-1.53-10.59-7.23,5.07-11.53,12-16.44,19.92V194.22c-4.76,1.59-6.69-.5-6.47-4.95.19-3.8-.23-7.84.94-11.33,1.87-5.57,2.67-10.85,1.37-16.68a9,9,0,0,1,2-7.08c4.19-4.4,9.14-8.07,13.59-12.25,1.22-1.14,1.73-3.05,2.57-4.6,1.26-2.31,2-5.61,3.9-6.73,6.55-3.77,13.54-6.75,20.87-10.28,1-7.62.95-7.65,10-8.82,3.13-.41,6.28-.68,9.31-1,.64-2.17.64-5.14,2.13-6.46s4.58-1.6,7-1.87c2.78-.3,5.61-.11,8.42-.13l1,.31Zm223.08,4.45.43.49c0-.11,0-.29-.06-.32a1.34,1.34,0,0,0-.45-.09l-8-4.84L279.3,95.11l3.54-4.19c-.64-.8-1.2-2.22-1.95-2.33a183.1,183.1,0,0,0-18.62-2.07c-5.13-.17-10.28.66-15.42,1l-.75-1.33,7.22-6.46-.41-1.31c-5.43,1.45-10.87,2.86-16.28,4.36-3.13.86-6.23,1.86-9.34,2.8l4-9.56c-12.84,1-22.15,9.71-33.07,14.13-2.73-4.48-1.27-7.08,2.72-9.5,5-3,9.52-6.71,14.26-10.11a7.69,7.69,0,0,0-5.08.3c-2.94,1.13-5.79,2.49-8.75,3.58-2.12.78-2.95.11-1.76-2.09,11.88-9.72,24.28-18.48,39.85-21.53l-.06-1.67-14.8-2c4.35-3.32,8.91-6.44,13.94-7.89s10.8-1.35,17-2l-8.11-6c8-4.28,16.26-7.16,25.68-4.44l.32-1.21L264.26,20c7.73-4.65,16.06-4.77,24.22-5.86-11.68-4.71-23.49-2.57-35.3-.34l-.69-1.54,10.71-6.5c-10.4-.54-17.17,6.88-25.94,11.73-.16-3.21-.27-5.52-.39-8C224.64,15.07,216.76,25,209.45,35.54l-1.51-.94V24.93l-1.79-.5L194.47,47.25c-3.73-2.14-2.66-6.81-3.71-12-1.71,2.49-3,3.73-3.53,5.23-3.09,8.5-6,17.06-9,25.59a23.67,23.67,0,0,1-1.54,3l-1.49-.23-2-12c.1-1.53.19-3.06.29-4.58L172.37,52l-1.58,4.52c-2,6.31-4,12.61-6.3,19.85-1.05-2.12-1.67-3.4-2.3-4.68l-1-1.8-.73,1.8-.63,13.14-.28,1.76,0,2.87c-.81-.65-2-1.14-2.36-2-1.38-3.15-2.49-6.41-3.71-9.63-1.93,10.25-2,10.45-5.41,12q-1.56-5.58-3.1-11.16C143.32,67,137,57.7,130,48.58c-.24,4,.26,7.79.35,11.6,0,.84-1.39,1.72-2.14,2.58l-5.88-9.55v-.05c-3.71-7-7.83-13.66-14.52-18.81-1,4.43,2.46,8.83-1.08,12.43L89.78,28l-1.2.89q1.13,4.65,2.26,9.3l-1.22.66c-9.87-8.12-19.71-16.29-32.93-18.13L58,28.43c-8.83-2.89-16.38-7.14-26.49-5.14l11.17,3.8c-6.46,1.83-12.8,1.89-18.8,3.35S12.11,34.76,6.24,37l.47,1.58c8.55-1.68,17.1-3.53,25.93-1.14l-7.15,7.4c9.09-2.41,17.3-3.74,25.75-.52l-5,7.44c9.45-4.39,27-2.19,32.09,3.46-5,1-10.53.7-14.31,5.92,5.06.4,9.64.1,13.84,1.22,9.27,2.46,18.35,5.64,27.5,8.53l6.13,3.85L111,75.91l-13.56-2H93.29l-.05.85,4.09,1.2,17.13,8.76L121.32,91c-4.23,4-4.23,4-2.92,7.63,7.44-2.79,9.5-2.45,14.07,2.62,1.79,2,4.27,4,1.53,7.1-13.49-4.71-26.83-9.74-42.79-9.57,7.08,3.36,14.29,4.66,16.71,13-12.68-1.5-24-7.15-36.42-4.61,2.56,3.34,8.48,3.44,7.88,9.26L54,115.23l-.17,1.21,8.92,5.16,0,1.69C50.28,124.71,38,126.63,26.25,135l8,3.21-2.34,1.32-13.54,7.78L8.8,154.76l.95,1.35,10.12-6.29H22c-1.21,2.09-2.33,4.23-3.64,6.25-3.31,5.14-7,10.07-10,15.4-1.67,3-2.16,6.67-3.18,10,5.7-6.17,9.47-13.55,17.33-17.62l.57,10.28c3.22-9.24,9.59-14.82,17.05-19.79.65,3.41,1.17,6.22,1.7,9,7.75-14,9.25-12.63,17.78-19.2l3.82-2.47c4.21-.22,2.19,1.87,1.38,3.61-1.61,3.47-3.16,7-4.73,10.47l1.46.65c1.87-1.83,3.5-4,5.65-5.43,8.28-5.42,16.74-10.58,25.13-15.84l8.12-3.31c3.57.18,2.38,1.75.81,3.12-2.06,1.79-4.28,3.39-6.44,5.07l-3,1.19,1.43,1.65L96,141.55c1-.51,2-1.1,3-1.52,7-2.74,13.89-5.6,21-8,1.17-.41,3,1.05,4.49,1.65l-19.71,8.2.51,1.21,11.11,1.57a42.82,42.82,0,0,1-4.71,2c-8.79,2.56-17.6,5-26.4,7.52l.1,1.86,10.22,4.52-.1,1.28a49.85,49.85,0,0,0-6.24,1.84c-5,2.19-9.91,4.6-14.86,6.92l-2.91,1.38.33.93,3.59-.57c2.22,1.08,6.35-1.87,6.67,3.18C71,181,61.68,188.36,54.92,199.89l7.25,1.27-7.52,10.55c-2.69,4.13-6.21,7.89-5.8,13.39l7-8.79,1.29.5c-2.27,11.62-6,23.19-1.94,35.1,2-8,2.33-16.62,7.68-23.82l4.35,8.78,1.3-.52a35.1,35.1,0,0,1,6.62-23.76l5.58,7.72c.92-6,1.65-10.69,2.38-15.41,3.36-4.79,4.92-11,11-14.91v14.53l1.46.27c4.48-13.61,12.38-25.16,21.13-36.19,2.76-1.1,2.88-6.49,7.48-4.61-2.91,6.08-7.33,11.58-7.57,17.9,7.52-6.73,15.2-13.73,23.08-20.5a5.6,5.6,0,0,1,4.69-1c4.54,1.78,8.86,4.09,14.47,6.78,1.16,5.69,2.67,13.15,4.18,20.6l4.92,25c.43,1.93.78,3.88,1.29,5.79q3.45,12.78,7,25.54,2.9,11.79,5.78,23.57c2.6,9,5.2,18,7.69,26.59h15.64c-2.38-7.92-4.61-15.32-6.83-22.72l-.84-3.27-.69-1.84q-3.85-15.45-7.72-30.89-2.82-11-5.65-22.07l-.61-2.2-.32-1.65c-.36-.74-.73-1.47-1.09-2.2l-.34-1.85q-3.09-13.86-6.19-27.73c-.41-1.56-1-3.1-1.21-4.68-.39-2.45-1.33-4.72,1.69-6.84a30.81,30.81,0,0,0,8.15-8.61c2.47-3.92,8.45-6.64,12.6-4.53,3.73,1.9,7.35,4,11,6l1.26-1-8.47-9.71,1.08-1.48,19.72,11.71,18.86,15.59-.68,1.37c-1.22-4.59-2.45-9.18-4-15.08,7.92,5.34,14,10.61,17.88,18.16.59,2.32,1.17,4.63,1.75,6.95l1.41.21,3-8.79c7.1,5.58,12,12.3,13.29,21.52l1.4-.31c.59-2.92,1.18-5.84,1.9-9.45,7.48,5.36,9.8,13.64,14.46,21.33.41-14.1-7-24.31-13-35l1.1-.84,10.53,8.39c-2.66-7.77-7.92-11.67-14-14.83L268,162.59l5.73-3.75c-7.32-6.85-15.66-11.55-25.52-13.35l-7.49-2.62v-1.51L251,138.15a43.5,43.5,0,0,0-23.08-2.71c-2.84.44-4.25-.45-3.14-3.53l7.62-5.59-.41-1.79c-10-.17-20.08-.43-30.12-.43-2,0-3.7.58-3.45-2.32v0l2.4-1.93,18.41-3.67h3.56l-3.4-1.79-13.31-4.73c1-.7,2-2,3-2,6.4-.18,12.8-.1,19.2-.1,10.45,1.86,20.16,5.55,28.65,12.26l1.1-.92L252.74,106c.19-.43.39-.87.59-1.3L269,112l7.31,10.26,1.11-.08c-.27-3.14-.55-6.29-.85-9.76,8.92,2.36,16.29,6.71,20.87,15.17l1.14-.63L296,116.28c8.31,2.24,13.79,7.92,19.9,12.58l.61,1.51.55-.14-.36-2c-4-9.47-11.93-15.2-19.75-21.09-1.39-1-2.25-2.78-3.35-4.2l5.54.83ZM215.33,457.05c-.94-1.31-5.5.32-3-3.75,3.19-2,6.34-4.1,9.56-6.08,4.45-2.73,6.83-7.65,5.78-12.2a54.23,54.23,0,0,1-4.76,5.43c-4.18,3.68-8.54,7.15-12.83,10.7-2.12,1.29-4.57,2.24-6.29,3.94-3.42,3.37-7.32,2.64-9.6-.08-4.08-4.88-9.42-5.42-14.86-6.73-6.66-1.6-13.14-3.92-20.68-6.23.77,1.69.93,2.91,1.62,3.41q6.95,5.07,14.08,9.87c4.84,3.27,9.76,6.41,14.65,9.61-.8,1.38-1.29,3.17-2.47,4.06a58.15,58.15,0,0,1-7.16,4l.26,1.22c2.27,0,4.67.47,6.79-.09a125,125,0,0,0,17.46-5.48c3.11-1.33,5.52-4.29,8.24-6.52l4.2-2.87,3.62-.95Zm31,35.17V299.13H187.59v99.6c1-1.13,1.56-1.64,2-2.2,1.74-2.1,3.14-5.28,6.66-3.28s3.19,5.15,1.79,8.3c-1.6,3.58-3.17,7.21-5.1,10.61-1.12,2-3,3.49-4.43,5.3a4.61,4.61,0,0,0-1.16,2.49c-.08,8.42,0,16.84,0,24.59a94.07,94.07,0,0,1,8.17,5.93c2.66,2.39,4.87,2.06,7.41-.05,4.66-3.87,9.5-7.52,14.11-11.44,2.53-2.14,4.44-5.16,7.21-6.82,1.78-1.07,5.91-1.33,6.69-.27a10.16,10.16,0,0,1,1.21,7.65,37.08,37.08,0,0,1-4.69,10.32c-3.33,5.35-2.76,13.84-11.6,14.94-.21,0-.35.53-.58.93l3.07,2.07c-2.32,1.66-4.3,3.11-6.32,4.52-3.18,2.21-6.2,4.75-9.63,6.47a39.55,39.55,0,0,1-9.94,3.13c-3.86.77-5.35,2.34-5.25,6.63.35,14.8.13,29.62.15,44.42,0,1.44.13,2.87.2,4.26H320.19v-45ZM221.84,171.88A22.39,22.39,0,0,0,221,175c0,27.79-.15,55.58.07,83.37.08,10.91,6.27,17.75,17.32,20a57.52,57.52,0,0,0,10.88,1.1c12.48.13,25,.06,37.45.05,13.81,0,27.64.4,41.43-.11,17.87-.66,26.43-8.6,25.9-26.13-.57-19.12-.12-38.28-.14-57.41,0-1.42-.14-2.84-.21-4.17H294.43v42.36H280.17c0-5.36.27-10.5-.08-15.59-.31-4.7,1.64-9.86-2.06-15.08-.94,4.29-1.65,7.51-2.36,10.74-2.76-9.31-8-15.94-14.19-22.14L258,201.72l-1.35-.39c-.82-9.83-7.37-15.85-14-22-6.36,3.22,1.35,9-.72,10.71ZM261.6,299V480.64h58.57V299Zm18.77-142V143.67h14.4v30.67h58.8c0-19.49.35-38.74-.17-58-.22-8.23-5.67-13.71-13.44-16.29-11.55-3.85-23.45-1.94-36.25-2.47,3.45,2.72,6.19,4.36,8.27,6.63,3.45,3.77-.24,5.45-3.28,7.31a15.2,15.2,0,0,1,2.58,2.26c3.71,5.44,7.49,10.84,10.84,16.49a5.34,5.34,0,0,1-.5,5c-.71.85-3.1.27-4.75.36a13.94,13.94,0,0,0-1.45.18l4.27,9c-6.75-5.28-12.6-10.84-21-13.05.85,4,1.54,7.38,2.24,10.71l-1.33.33c-4.4-8.82-12-12.85-20.51-15.12.23,3.61.42,6.71.64,10.34-4-4.53-6.95-8.46-10.5-11.77s-7.58-5.23-11.78-.35c3.66,6.13,1.91,11.77-1.36,16.5ZM230.43,294.11c-2.77-3.41-5.6-6.06-7.39-9.29-5.59-10.06-7.71-20.88-7.51-32.5.42-24.28.15-48.58.08-72.87a28,28,0,0,0-1-5.27l-1.34.34c-.16.74-.34,1.48-.5,2.22-.91,4.33-2.5,5-6.23,2-3-2.46-6.9-3.94-10.49-5.64a4,4,0,0,0-3.18.13c-8.43,4.63-11.49,11.89-9.23,21.51.57,2.43,1.13,4.85,1.76,7.26q11.46,44.12,23,88.21c.4,1.49,2.16,3.65,3.4,3.73C217.94,294.32,224.06,294.11,230.43,294.11Zm26,193V297.39h-4.93V487.1Zm-61.78-89.41c-5.89,4.6-11.52,9.1-17.29,13.4-.83.62-2.94.9-3.44.38-5-5.3-12.14-4.89-18.28-7.06-2.3-.8-4.62-1.55-6.93-2.33l-.9,2c4.31,2.54,8.67,5,12.91,7.64,2.89,1.8,5.62,3.86,9,6.21l-8,5.68c9.65.09,23.88-6.4,25-11.09l-3.2-1.93C186.58,405.45,194.72,405.21,194.69,397.69ZM182.3,433.8l-16,5.41,0,1.08L182,445.05c.11-1.54.24-2.67.25-3.81C182.33,438.81,182.3,436.38,182.3,433.8Zm55.38-303.87L255,134.36c-.56-3.45-4.73-6.08-15.17-9.45Zm51.61,29.87c-1.88,1.08-3.55,1.44-3.91,2.34-1.57,3.92.25,8.9,3.91,11.29ZM286.62,220l-1.1.33v9.44l4.68-.73ZM276.43,20.73l-.13.52h14.39l-.09-1.31Zm-255,21.88-.12-1.1L12.4,42.66l.18,1.26ZM173.85,50.1l.1-.43-.3.27Zm-168-5L5.46,45l-.06.51c.12,0,.27,0,.36-.09S5.79,45.23,5.8,45.13Zm3.05-.83c-.06-.1-.1-.25-.18-.29s-.25,0-.37,0l.24.46ZM90.45,143a7.06,7.06,0,0,0,1,.56,7.77,7.77,0,0,0,.63-1Z"/><path class="cls-2" d="M433.07,105.41l12.63-1.06c.15-.23.43-.48.46-.76,1.13-10.5,1.36-10.71,11.81-10.71h45.44c11.45,0,11.45,0,12.89,11.78h5.28q29.71,0,59.42,0c6.77,0,8.54,1.34,8.53,8,0,16.46-.52,32.92-.65,49.38,0,4.45.78,8.9.79,13.35.08,26.63-.23,53.27.17,79.89a57.94,57.94,0,0,1-8.07,30.34c-2.26,3.92-6.57,6.66-9.89,9.89,7.2,2.12,15.14,4.89,19.91,12.57.37-.19.84-.3.85-.45.65-9.85.9-10.07,11-10.08,5,0,10,0,15-.09.23,0,.45-.26,1-.57-2.87-.86-5.55-1.51-8.13-2.48-5.92-2.22-9.13-6.7-12.23-12.26-6.39-11.47-5.85-23.64-5.84-35.9q0-72.15.18-144.3c0-8,1.45-9.11,9.45-9.11h47.44c11.66,0,12.3.59,12.31,12.48q0,58.92,0,117.84v5.61c4.18,2,4.15-.54,4.15-3.47q-.06-58.43,0-116.84c0-3.16.31-6.31.44-9.46.16-4.15,2.64-6.09,6.43-6.11,18.81-.1,37.61-.07,56.42,0,3.25,0,5.39,1.77,5.79,5.06a78.14,78.14,0,0,1,.58,9.43c0,72.4-.1,144.81.16,217.21,0,11.49-3.87,21.35-9,31.11a7.52,7.52,0,0,0-.91,4.57c3.11-2.67,6.08-5.52,9.35-8,5.49-4.1,10.2-2,11.22,4.86.28,1.91.23,3.88.39,6.93,2.67-3,4.43-5.62,6.84-7.39,2.17-1.6,5.12-3.09,7.6-2.91,1.23.09,3,4,3.11,6.24.38,9.62.82,19.3,0,28.85-.42,4.84-1.84,9.77-5.91,14-9.07,9.37-17.2,19.66-25.77,29.53a32.15,32.15,0,0,1-3.71,3.1c-4.54-9.23-6-18.6-4.94-29.59-3.63,2.56-5.89,4.39-8.36,5.86-4,2.39-6,1.52-7.31-3-.65-2.2-1.18-4.44-2.06-7.78-2.22,2.58-4,4.45-5.54,6.47-4.07,5.19-6.5,5.71-11.44,2.29-8.07,8.24-11.08,8.52-16.38,1.15-1.14,1.26-2,2.88-3.33,3.56-3.54,1.82-7.17,3.79-11,4.63-3.54.78-7.39.17-10.93.17-2.69,9.65-2.55,19.55-7.81,27.8l-1.66.25c-2-5.9-4.1-11.79-6.06-17.45l-9.63-.69c-6.64,9.13-9.77,9.74-16.6,3.65-2.76,4.4-6,8.69-8.28,13.47-1.87,4-3.87,8.6-3.54,12.76.82,10.4-2.92,19.31-7.5,27.92-4.83,9-14,10.73-23.17,11-12.3.4-24.63.15-36.95.15-14.14,0-28.3.25-42.44-.15a47.86,47.86,0,0,1-15.5-3,18.34,18.34,0,0,1-9-7.34c-5-9-8.68-18.4-8.59-29.17.3-34.79.11-69.58.11-104.36V348.9l-1-.12a53.28,53.28,0,0,0-.76,6.5c0,16.79.14,33.57,0,50.36,0,1.75-1.45,3.5-2.27,5.24-1,2.2-2.12,4.37-3.46,7.13-3.7.9-10.41,7.55-10.08,12.16.39,5.53-2.55,7.56-6.74,9.21a27,27,0,0,0-2.58,1.37l3.83,2a6.35,6.35,0,0,0-1.05.57c-3.07,2.38-5.93,5.1-9.23,7.1-4.27,2.59-8.67,5.43-13.41,6.67s-6.44,3.15-6.05,8a148.34,148.34,0,0,1,0,16.47c-.11,3.72.47,7.58-3.76,10.14-1.28.78-1.12,3.93-1.69,6.3H336.63c-1.9-3.16-3.52-5.56-4.82-8.13a14.38,14.38,0,0,1-1.55-5.13c-.3-3.48-.29-7-.29-10.48q0-71.65,0-143.31v-3c.12-23.45,9.31-32.91,32.79-33.75,1.64-.06,3.28,0,5.28,0,0-1.26.33-2.83,0-3-5.73-3-4.53-8.59-4.54-13.2-.18-57.59-.11-115.18-.11-172.77v-.5c.37-11.09,1.11-11.81,12.13-11.81H421.9c9.94,0,10.78.82,11.06,10.72C433,104.26,433,104.92,433.07,105.41ZM531.38,421.9l.31-1.4-1,.59-.67,1ZM617,394.33l.57,3.06c.4,1.31.8,2.62,1.21,3.93.31.66.63,1.32.94,2-1.56,4.28-4.38,4.65-7.69,1l-.15-4-.78-.66-.38.68c-.72-1.34-2.11-2.73-2-4,.17-2.36,1.21-4.66,1.89-7,.57-4.21,1-8.44,1.73-12.63,1.3-8,3-16-.4-23.82-.77-1.8-2.21-3.3-3.34-4.95-1.31,1.59-3,3-3.87,4.78-5.37,11-5.53,22.78-5,34.65-.87.22-1.93.87-2.58.58-1.66-.74-3.35-2.9-4.66-2.64a10.82,10.82,0,0,0-5.61,3.68c-5.94,7.08-7.82,15.33-6.21,24.41.28,1.34.55,2.68.83,4a.9.9,0,0,0,.29.91l2.6,4-17.77,6.59c-1.68.62-3.34,1.29-5,1.86-4.6,1.54-9.22,3.05-13.83,4.57L562.12,417l11.28-20.42c.12-1.8.66-3.7.3-5.41-2-9.72-7.89-20.17-20.71-14.75-12.44,5.27-21.47,14.54-29,25.47l0,0-.2.21c-4.65,6-9.24,12.09-9.63,20.15a81.79,81.79,0,0,0,2,9c.92,2.76,3.2,3.49,5.39,1.44,3-2.84,5.74-6.06,8.58-9.11l-.52-.73-4.38,1.75c.87-2,1.36-3.11,1.85-4.24l10.83-14.33c1.07,5.71,2,10.48,2.87,15.24q.2,6.92.4,13.82c-4.93,3.58-5.47,8.54-3.41,13.61.58,1.45,3.63,1.9,6.06,3l.86,3.53c1,6.23,1.73,12.54,5.64,18.42,3.32-2.58,4.09-5.41,3.15-8.6-.87-3-2.16-5.81-3.27-8.71-.44-2.73-.89-5.45-1.4-8.61l48.67-15.37c-.67-2.7-1.08-4.37-1.5-6,1.56-.74,3.9-1.07,4.54-2.29a116,116,0,0,0,4.8-11.61l3.1,1.7c5.47,5,8.67,4.51,12.64-1.92l4.43-2.85,6.34.68,5.9-2.81c-.26,2.74-.45,5.5-.79,8.23-.53,4.15-.49,8.13,3.12,12.43,1.42-2.75,3-4.75,3.49-7,1-5.16,1.48-10.43,2.16-15.66.48-1.89,1-3.79,1.41-5.63,9.36-1.46,20.22,3.23,26-8.13,7,6.69,7.32,6.66,17.19-1,3.71,3.51,6.9,2,9.78-1.19,1.63-1.82,3.07-3.82,4.59-5.74l4.93-4.27a74.12,74.12,0,0,0-.78,8.39c.07,4.65,2.68,6.42,6.79,4.51,2.76-1.27,5.2-3.23,8-5,2.73,5,6,3.11,9.47.28s7.1-5.55,10.66-8.32l.45.53L737.38,392l.07.12L736,393.24c-2.41,3.94-5,7.77-7.19,11.85-1.84,3.53-1.69,7.17,1.41,11.2L748,394.53c5.43-5.92,11.92-11,16.07-17.94l-1.17-1.11-18.27,15.23-1-1.09c4.65-6.62,9.37-13.19,13.91-19.89a42,42,0,0,0,5.05-9c.52-1.42-.88-3.55-1.41-5.35a19.64,19.64,0,0,0-4,2.33c-4.17,4-7.89,8.5-12.34,12.14-4.06,3.31-8.84,5.73-13.3,8.55-.52-1.23-1-2.47-1.57-3.7l-.54-.45c4.66-4.62,9.48-9.1,13.84-14a6.14,6.14,0,0,0,.7-5.55c-1.1-2.23-3.43-2.88-5.77-.78-2.93,2.63-6.55,4.7-8.88,7.76-4.17,5.48-10.37,10.34-8.16,18.69l-5.42-1.08a46,46,0,0,1,2.09-6.66c2.27-4.69,7.39-8.74,2.94-14.05.81-2,2.18-3.71,1.83-4.94a6.19,6.19,0,0,0-3.62-3.59c-1.33-.42-3.21.45-4.72,1.07a67.81,67.81,0,0,0-21.91,15.05c-5.72,5.69-8.06,11.56-4.58,19.15-3.09,2.28-5.61,1-7.94-1.3.22-2,.88-5.61.6-5.69-4.08-1.07-1.85-2.9-.77-4.62.7-1.1,1.37-2.21,2-3.31,3.7-7.17,7.77-14.18,11-21.56a29.3,29.3,0,0,0,.9-22.18c-11.91,9.37-16.34,21.8-19.52,33.56-2.73.36-5.5-.1-6.77,1.06-3.91,3.57-7.25,7.77-10.81,11.72l-3.81,3.36-.27-.33c3.41-9.42,6.82-18.84,10.38-28.7-7.4,0-9.7,4.95-11.94,9.67-4.18,8.79-8.13,17.69-12.06,26.6a74.17,74.17,0,0,0-2.36,7.07l1.41.43L648,372.25l1.06.45q-2.13,8.32-4.27,16.64c-1.47,1.92-2.86,3.92-4.44,5.75-5,5.77-7,6.35-13,4.07l-.85-4.85c.71-.68,1.46-1.33,2.14-2.05,5.09-5.45,10.51-10.85,11.86-18.52a9.64,9.64,0,0,0-2.38-7.36c-1-1-4.8-.36-6.57.76-9.12,5.81-13.28,14.71-14.55,25.17Zm-224.47,44-13.27,7.54.78,1.7c12.09,0,22.87-5.2,33.94-9.29l9.11-8.54,2.86-1.48,1.81-.95L426,426.4l-6.56-2.69c2.2-4.71,6.4-7,10.68-9.06a18.35,18.35,0,0,0,10-11.07c.56-1.66.08-3.67.08-6.6-2.89,3.56-4.5,6.38-6.85,8.26-8.82,7.08-17.88,13.85-26.85,20.74a.28.28,0,0,0-.44.2l-10-5.83c-1.51-1-2.9-2.42-4.55-2.83-3.76-1-7.78-1-11.47-2.14-7.94-2.46-15.74-5.38-24.13-8.3.17,1.61-.14,3.11.46,3.71,2.79,2.8,5.49,5.94,8.85,7.88,5.86,3.39,12.17,6,18.29,8.93l5.41,3.73C390.12,433.66,391.35,436,392.57,438.31Zm60.26-120.08C454,307.82,460.1,301,469.9,296.32c-9.35-2.94-13.33-5.52-15.89-10.53-4.88-9.55-8.09-19.41-7.94-30.46.37-26,.12-51.93.12-77.89v-5.67h-8.93c-.91-2.9,1-7.24-4.12-7.35a3.34,3.34,0,0,0-.14.65q0,52.94,0,105.86c0,4.16.31,8.38-.33,12.45-.39,2.45-2.36,4.64-3.55,7a33.1,33.1,0,0,0-1.3,3.47c6.05,0,11.19-.06,16.33,0,5.42.09,7.21,1.65,7.53,7.1.33,5.81.28,11.64.4,17.46l-1.58,26.37,2.37.06Zm145.08-15.81V349c3.25-1.22,5.8-2.33,8.46-3.12a9,9,0,0,1,4.25-.23c2.87.6,5.66,2.15,8.51,2.22,10.14.29,20.3.23,30.45,0,2.32,0,4.7-1,6.91-1.93,2.82-1.13,5.13-2.51,7.89.68s10.3,1.49,12.49-2.14c2.9-4.81,5.85-9.61,9.11-14.17,2-2.74,4.58-6.83,8.2-4.66,2.27,1.36,3.29,5.77,3.75,9,.62,4.3.15,8.76.15,13.22,3.84-.22,7.66-.29,11.45-.69,15.17-1.6,21.92-9.1,21.92-24.23q0-110.1,0-220.2V97.93H672V234.12h-14.5V98H598.81a6.68,6.68,0,0,0-.27,1.23q0,79.63.06,159.28c0,9.92,4.92,16.49,14.51,19a74.16,74.16,0,0,0,17.23,2c13.6.28,27.21.09,41,.09v22.79Zm-146.51-148v5.69q0,47.67,0,95.33c0,12.89,5.13,19.86,16.57,22.76a31,31,0,0,0,7.36,1.19c28.45.08,56.91.51,85.34-.13,16.78-.38,23.81-8.74,23.82-25.44q0-41.17,0-82.35v-5.3h-59v67.88H511.09V154.37H584.2v-45H510.64V97.92H451.22v11.76h-14v44.77Zm80.17,277,.8.51c-.13,1.18.18,2.75-.46,3.49-3.39,3.87-6.92,7.65-10.67,11.16-.66.61-3.57.24-3.88-.42-4.57-9.64-9.26-19.58-4.48-30.35a97.26,97.26,0,0,1,10.75-17.79c7.64-10.37,16.79-19.22,28.93-24.29,9.11-3.8,18.34.69,21.45,10a40.3,40.3,0,0,1,.65,22.54c-.47,2-.7,4-1,6l2,.67c.61-1.65,1.61-3.26,1.79-4.95.92-8.78,3-16.91,9.89-23.23a8.92,8.92,0,0,0,2.49-5.83c.18-19.3-.16-38.61.22-57.9.19-9.41-4.24-15.13-12.28-18.5-3.78-1.58-8-3-12-3.09-28.1-.49-56.23-1.26-84.31-.62-16.58.38-24.43,10.15-24.38,26.64,0,15.31.11,30.62.12,45.93,0,28.62,0,57.24,0,85.86,0,11.45,4.48,18.4,14.44,21.24a64.64,64.64,0,0,0,16.23,2.18c14,.28,28,.06,41.94.05h17.12l-4.42-16.74c-4.67,2.61-4.75-1.28-5.54-4.41-.73-2.86-1.61-5.68-2.33-8.54-1.29-5.16-1.44-10.15,2.16-14.64,3.28-4.1,1-8.16.24-12.92ZM335.11,480.64H394V456l-14.23,1-.24-1.43,3.24-2.76c-2.64-1.92-6.7-3.31-7.23-5.54-1.33-5.63,5.09-6.22,8.26-9.67-3.09-1.45-6.22-2.55-8.95-4.27a147.06,147.06,0,0,1-15.75-10.91c-2.2-1.83-3.14-5.19-4.62-7.88-1.28-2.34-3.09-4.59-3.63-7.11-.88-4.11,1.28-5.79,5.41-4.65,2.85.79,5.58,2,8.43,2.83,9.66,2.73,19.35,5.34,29.82,8.22V401.18c11.73,0,23-.08,34.33.05,2.85,0,4.43-.67,5.61-3.57.82-2,3.17-4.64,5-4.75,1.55-.09,3.33,2.95,4.92,4.68a10.15,10.15,0,0,1,1.13,2.18V355.35H394.68V344.29h51.6v-45c-29.54,0-58.81-.54-88,.21-16.38.42-23.12,8.74-23.12,25q0,75.63,0,151.25Zm92.39-201.2V98H368.85V279.44Zm162,169L554,460c4.15,7.33,3.27,13.93.25,20.5C577.58,481.89,593.46,476.84,589.49,448.48ZM516.08,172v57.56l4.15-.18V172ZM617,380.53c3.48-4.82,7.2-9.95,10.74-14.86H617Zm49.23-82.72c-5.74-2.24-41.94-1.7-44.43,0Zm-71.14,84.37h1.57c-.42-7.94,3.61-15.95-1.57-23.81Z"/><path class="cls-1" d="M129.43,457.92c-.32-.25.4.3.76.59-5.15,6.94-13.13,7.74-22,10.26a17.49,17.49,0,0,1,1.7-2.55c.47-.41,1.08-.67.79-.5-2.15-3.15-4.14-6.24-6.34-9.17-.76-1-2.25-1.46-3-2.45a33.69,33.69,0,0,1-2.87-4.59c-.39-.68-.39-1.85-.93-2.15-5.92-3.27-4-8.87-4-13.75,0-2.86,1.52-4.74,4.88-3.57,6.92,2.4,13.83,4.85,20.81,7.1a4.35,4.35,0,0,0,3.44-.74c3.41-2.76,6.53-5.88,10-8.6,1.29-1,3.38-2.06,4.7-1.67a5.28,5.28,0,0,1,2.91,3.93c.32,4.89.7,9.71-2.92,14.16C134.16,448,132.28,452.8,129.43,457.92Zm-3.19-18.74c-2.87.33-4.07,4.61-8.31,2.52-6.31-3.12-13.16-5.14-19.79-7.63l-.75,1.57,18.11,11.69-6,4c8.06-.28,15.53-1.76,20.08-7.54L128,439.43c3.25-2.31,8.09-3.18,8.15-9.15Z"/><path class="cls-3" d="M246.32,492.22h73.87v45H187.54c-.07-1.39-.2-2.82-.2-4.26,0-14.8.2-29.62-.15-44.42-.1-4.29,1.39-5.86,5.25-6.63a39.55,39.55,0,0,0,9.94-3.13c3.43-1.72,6.45-4.26,9.63-6.47,2-1.41,4-2.86,6.32-4.52l-3.07-2.07c.23-.4.37-.9.58-.93,8.84-1.1,8.27-9.59,11.6-14.94a37.08,37.08,0,0,0,4.69-10.32,10.16,10.16,0,0,0-1.21-7.65c-.78-1.06-4.91-.8-6.69.27-2.77,1.66-4.68,4.68-7.21,6.82-4.61,3.92-9.45,7.57-14.11,11.44-2.54,2.11-4.75,2.44-7.41.05a94.07,94.07,0,0,0-8.17-5.93c0-7.75,0-16.17,0-24.59a4.61,4.61,0,0,1,1.16-2.49c1.42-1.81,3.31-3.33,4.43-5.3,1.93-3.4,3.5-7,5.1-10.61,1.4-3.15,1.67-6.34-1.79-8.3s-4.92,1.18-6.66,3.28c-.47.56-1,1.07-2,2.2v-99.6h58.73Z"/><path class="cls-4" d="M221.84,171.88,242,190.08c2.07-1.73-5.64-7.49.72-10.71,6.6,6.11,13.15,12.13,14,22l1.35.39,3.49-9.68c6.19,6.2,11.43,12.83,14.19,22.14.71-3.23,1.42-6.45,2.36-10.74,3.7,5.22,1.75,10.38,2.06,15.08.35,5.09.08,10.23.08,15.59h14.26V191.75h59.23c.07,1.33.21,2.75.21,4.17,0,19.13-.43,38.29.14,57.41.53,17.53-8,25.47-25.9,26.13-13.79.51-27.62.11-41.43.11-12.48,0-25,.08-37.45-.05a57.52,57.52,0,0,1-10.88-1.1c-11-2.28-17.24-9.12-17.32-20-.22-27.79-.09-55.58-.07-83.37A22.39,22.39,0,0,1,221.84,171.88Z"/><path class="cls-5" d="M261.6,299h58.57V480.64H261.6Zm9.11,122c-.3.59-1,1.55-.85,1.71,2.15,2.34,5.16,4.22,6.46,6.93s2.44,4,5.42,3.78a33.42,33.42,0,0,1,5.15.51L280.08,439a32.15,32.15,0,0,0,21.07-9.24l-2.84-1.93c8.47-2.86,8.69-11.12,12.81-16.63,2-2.66,1.15-5.63-1.49-7.44s-4.73-.29-6.84,1.86c-3.5,3.57-7.46,6.71-11,9.85-2.17-1.45-3.41-2.71-4.91-3.21-6-1.95-11.94-3.8-18-5.35a4.2,4.2,0,0,0-3.71,1.6c-.67,1.46-.94,3.89-.14,5.06,1.71,2.47,4.21,4.39,6.39,6.54Z"/><path class="cls-6" d="M18.37,147.27l13.54-7.78,2.34-1.32-8-3.21c11.77-8.33,24-10.25,36.45-11.67l0-1.69-8.92-5.16.17-1.21,25.39,1.17c.6-5.82-5.32-5.92-7.88-9.26,12.45-2.54,23.74,3.11,36.42,4.61-2.42-8.35-9.63-9.65-16.71-13,16-.17,29.3,4.86,42.79,9.57,2.74-3.15.26-5.12-1.53-7.1-4.57-5.07-6.63-5.41-14.07-2.62C117.09,95,117.09,95,121.32,91l-6.86-6.28,27.16-8.07,3.33,2.1q1.53,5.58,3.09,11.16c3.4-1.53,3.48-1.73,5.41-12,1.22,3.22,2.33,6.48,3.71,9.63.37.84,1.55,1.33,2.36,2,2.32-.93,2.29-1.89,0-2.87.09-.58.19-1.17.28-1.76,1.49-3.13,4.13-3.93,7.4-4.8,9.33-2.48,18.43-5.83,27.69-8.59,1.34-.4,3.08.56,4.64.9-1.19,2.2-.36,2.87,1.76,2.09,3-1.09,5.81-2.45,8.75-3.58a7.69,7.69,0,0,1,5.08-.3c-4.74,3.4-9.29,7.1-14.26,10.11-4,2.42-5.45,5-2.72,9.5,10.92-4.42,20.23-13.13,33.07-14.13l-4,9.56c-.87.68-1.64,1.67-2.63,2-17,5.42-34,10.74-51,16.12-14.49,4.59-28.95,9.28-43.45,13.83-10.2,3.21-20.45,6.27-30.85,9.44l1.13,4.86-8.12,3.31v-5.71c-9.7,3-18.48,5.66-27.17,8.6-.88.3-1.16,2.39-1.72,3.65l-3.82,2.47c-.87-2.81-2.28-3.91-5.45-2.73a133.66,133.66,0,0,1-13.66,4C34.4,147,28.19,148.37,22,149.81H19.87Z"/><path class="cls-7" d="M280.37,157l-24.31-14.57c3.27-4.73,5-10.37,1.36-16.5,4.2-4.88,8.29-2.89,11.78.35s6.52,7.24,10.5,11.77c-.22-3.63-.41-6.73-.64-10.34,8.47,2.27,16.11,6.3,20.51,15.12l1.33-.33c-.7-3.33-1.39-6.67-2.24-10.71,8.43,2.21,14.28,7.77,21,13.05l-4.27-9a13.94,13.94,0,0,1,1.45-.18c1.65-.09,4,.49,4.75-.36a5.34,5.34,0,0,0,.5-5c-3.35-5.65-7.13-11.05-10.84-16.49a15.2,15.2,0,0,0-2.58-2.26c3-1.86,6.73-3.54,3.28-7.31-2.08-2.27-4.82-3.91-8.27-6.63,12.8.53,24.7-1.38,36.25,2.47,7.77,2.58,13.22,8.06,13.44,16.29.52,19.23.17,38.48.17,58h-58.8V143.67h-14.4Z"/><path class="cls-8" d="M199.56,72.38c-1.56-.34-3.3-1.3-4.64-.9-9.26,2.76-18.36,6.11-27.69,8.59-3.27.87-5.91,1.67-7.4,4.8l.63-13.14h1.73c.63,1.28,1.25,2.56,2.3,4.68,2.29-7.24,4.3-13.54,6.3-19.85l2.38.19,2,12,1.49.23a23.67,23.67,0,0,0,1.54-3c3-8.53,5.93-17.09,9-25.59.55-1.5,1.82-2.74,3.53-5.23,1.05,5.23,0,9.9,3.71,12l11.68-22.82,1.79.5V34.6l1.51.94C216.76,25,224.64,15.07,236.87,9.46c.12,2.5.23,4.81.39,8C246,12.63,252.8,5.21,263.2,5.75l-10.71,6.5.69,1.54c11.81-2.23,23.62-4.37,35.3.34C280.32,15.22,272,15.34,264.26,20l9.1,5.58L273,26.78c-9.42-2.72-17.66.16-25.68,4.44l8.11,6c-6.18.66-11.82.52-17,2s-9.59,4.57-13.94,7.89l14.8,2,.06,1.67C223.84,53.9,211.44,62.66,199.56,72.38Z"/><path class="cls-9" d="M82.11,175.48c-.32-5-4.45-2.1-6.67-3.18l-1-1.74c4.95-2.32,9.86-4.73,14.86-6.92a49.85,49.85,0,0,1,6.24-1.84l.1-1.28L85.41,156l-.1-1.86c8.8-2.5,17.61-5,26.4-7.52a42.82,42.82,0,0,0,4.71-2,12.06,12.06,0,0,0,3-.19c19.15-6,38.23-12.16,57.45-17.92,7-2.1,14.37-3.19,21.57-4.74-.25,2.9,1.46,2.32,3.45,2.32,10,0,20.08.26,30.12.43l.41,1.79-7.62,5.59c-2.21-.23-4.64-1.18-6.61-.58-18.93,5.76-37.79,11.79-56.67,17.74-11.32,3.56-22.67,7-33.92,10.81-1.42.48-2.25,2.7-3.36,4.11-4.6-1.88-4.72,3.51-7.48,4.6l-.9-5.64Z"/><path class="cls-10" d="M100.49,131.86,99.36,127c10.4-3.17,20.65-6.23,30.85-9.44,14.5-4.55,29-9.24,43.45-13.83,17-5.38,34-10.7,51-16.12,1-.31,1.76-1.3,2.63-2,3.11-.94,6.21-1.94,9.34-2.8,5.41-1.5,10.85-2.91,16.28-4.36l.41,1.31-7.22,6.46.75,1.33c5.14-.39,10.29-1.22,15.42-1a183.1,183.1,0,0,1,18.62,2.07c.75.11,1.31,1.53,1.95,2.33-8.93-1.6-17.35-3.88-26.57,1.26-7.9,4.39-17.41,5.84-26.16,8.72-2.91,1-5.68,2.31-8.54,3.49l6.67,3.2c-6.4,0-12.8-.08-19.2.1-1,0-2,1.3-3,2-1.59-.17-3.35-.86-4.74-.42-19.48,6.25-38.9,12.71-58.38,19-6.08,2-12.28,3.59-18.43,5.38-1.51-.6-3.32-2.06-4.49-1.65-7.07,2.43-14,5.29-21,8-1,.42-2,1-3,1.52l-1.16-1.5c2.16-1.68,4.38-3.28,6.44-5.07C102.87,133.61,104.06,132,100.49,131.86Z"/><path class="cls-11" d="M105.4,70.89C96.25,68,87.17,64.82,77.9,62.36c-4.2-1.12-8.78-.82-13.84-1.22,3.78-5.22,9.28-4.93,14.31-5.92-5.12-5.65-22.64-7.85-32.09-3.46l5-7.44c-8.45-3.22-16.66-1.89-25.75.52l7.15-7.4c-8.83-2.39-17.38-.54-25.93,1.14L6.24,37c5.87-2.24,11.59-5.09,17.64-6.56s12.34-1.52,18.8-3.35l-11.17-3.8c10.11-2,17.66,2.25,26.49,5.14l-1.31-7.69c13.22,1.84,23.06,10,32.93,18.13l1.22-.66q-1.14-4.65-2.26-9.3l1.2-.89,17,18.76c3.54-3.6,0-8,1.08-12.43,6.69,5.15,10.81,11.82,14.52,18.81-11.46.14-21.23,5.59-31.57,9.64,1.49,1.15,3,1.33,4.23,2C98.57,66.62,103.6,66,105.4,70.89Z"/><path class="cls-12" d="M124.2,164c1.11-1.41,1.94-3.63,3.36-4.11,11.25-3.79,22.6-7.25,33.92-10.81,18.88-5.95,37.74-12,56.67-17.74,2-.6,4.4.35,6.61.58-1.11,3.08.3,4,3.14,3.53A43.5,43.5,0,0,1,251,138.15l-10.22,3.21v1.51l7.49,2.62c-.74.71-1.36,1.78-2.24,2.06-6.77,2.13-13.68,3.85-20.35,6.27-1.92.69-3.19,3.2-4.75,4.89L201.18,147l-1.08,1.48,8.47,9.71-1.26,1c-3.67-2-7.29-4.12-11-6-4.15-2.11-10.13.61-12.6,4.53a30.81,30.81,0,0,1-8.15,8.61c-3,2.12-2.08,4.39-1.69,6.84.25,1.58.8,3.12,1.21,4.68l-10.91-1.65-1.1,11.56c-1.51-7.45-3-14.91-4.18-20.6-5.61-2.69-9.93-5-14.47-6.78a5.6,5.6,0,0,0-4.69,1c-7.88,6.77-15.56,13.77-23.08,20.5C116.87,175.57,121.29,170.07,124.2,164Z"/><path class="cls-12" d="M82.11,175.48,115.82,163l.9,5.64c-8.75,11-16.65,22.59-21.13,36.2l-1.46-.27V190c-6.09,3.93-7.65,10.12-11,14.91-3.91.39-7.93.32-11.68,1.28-5.69,1.47-11.2,3.65-16.79,5.53l7.52-10.55-7.25-1.27C61.68,188.36,71,181,82.11,175.48Z"/><path class="cls-13" d="M105.4,70.89C103.6,66,98.57,66.62,95,64.78c-1.25-.65-2.74-.83-4.23-2,10.34-4,20.11-9.5,31.57-9.64v.05a8.77,8.77,0,0,0,5.88,9.55c.75-.86,2.16-1.74,2.14-2.58-.09-3.81-.59-7.62-.35-11.6,7,9.12,13.33,18.44,14.95,30.13l-3.32-2.1-27.16,8.07L97.33,75.92l.09-2,13.56,2,.55-1.17Z"/><path class="cls-14" d="M220.9,158.71c1.56-1.69,2.83-4.2,4.75-4.89,6.67-2.42,13.58-4.14,20.35-6.27.88-.28,1.5-1.35,2.24-2.06,9.86,1.8,18.2,6.5,25.52,13.35L268,162.59l6.66,5.32c-2.79,1.23-5.52,2.58-8.36,3.65-4.8,1.79-10.28,2.28-13.4,7.19-3.86-7.55-10-12.82-17.88-18.16,1.58,5.9,2.81,10.49,4,15.08l.68-1.37Z"/><path class="cls-15" d="M228.24,107.59l-6.67-3.2c2.86-1.18,5.63-2.53,8.54-3.49,8.75-2.88,18.26-4.33,26.16-8.72,9.22-5.14,17.64-2.86,26.57-1.26l-3.54,4.19,19.84,5.77c0,1,0,1.91,0,2.86l-5.54-.83c-1.7-.06-3.52-.54-5.08-.1a116.38,116.38,0,0,0-13.89,4.71c-2.12.91-3.75,3-5.61,4.51l-15.7-7.33c-.2.43-.4.87-.59,1.3L258,118.93l-1.1.92C248.4,113.14,238.69,109.45,228.24,107.59Z"/><path class="cls-15" d="M124.51,133.65c6.15-1.79,12.35-3.41,18.43-5.38,19.48-6.29,38.9-12.75,58.38-19,1.39-.44,3.15.25,4.74.42l13.31,4.73c-.05.6-.11,1.2-.16,1.79l-18.42,3.67-2.39,1.93v0c-7.2,1.55-14.54,2.64-21.57,4.74-19.22,5.76-38.3,12-57.45,17.92a12.06,12.06,0,0,1-3,.19l-11.11-1.57-.51-1.21Z"/><path class="cls-10" d="M22,149.81c6.18-1.44,12.39-2.79,18.54-4.36a133.66,133.66,0,0,0,13.66-4c3.17-1.18,4.58-.08,5.45,2.73-8.53,6.57-10,5.24-17.78,19.2-.53-2.8-1.05-5.61-1.7-9-7.46,5-13.83,10.55-17,19.79l-.57-10.28c-7.86,4.07-11.63,11.45-17.33,17.62,1-3.36,1.51-7,3.18-10,2.95-5.33,6.65-10.26,10-15.4C19.68,154,20.8,151.9,22,149.81Z"/><path class="cls-16" d="M54.65,211.71c5.59-1.88,11.1-4.06,16.79-5.53,3.75-1,7.77-.89,11.68-1.28-.73,4.72-1.46,9.44-2.38,15.41l-5.58-7.72a35.1,35.1,0,0,0-6.62,23.76l-1.3.52-4.35-8.78c-5.35,7.2-5.63,15.77-7.68,23.82-4-11.91-.33-23.48,1.94-35.1l-1.29-.5-7,8.79C48.44,219.6,52,215.84,54.65,211.71Z"/><path class="cls-17" d="M252.93,178.75c3.12-4.91,8.6-5.4,13.4-7.19,2.84-1.07,5.57-2.42,8.36-3.65,6.06,3.16,11.32,7.06,14,14.83l-10.53-8.39-1.1.84c6,10.71,13.46,20.92,13,35-4.66-7.69-7-16-14.46-21.33-.72,3.61-1.31,6.53-1.9,9.45l-1.4.31c-1.31-9.22-6.19-15.94-13.29-21.52l-3,8.79-1.41-.21C254.1,183.38,253.52,181.07,252.93,178.75Z"/><path class="cls-12" d="M269,112c1.86-1.54,3.49-3.6,5.61-4.51a116.38,116.38,0,0,1,13.89-4.71c1.56-.44,3.38,0,5.08.1,1.1,1.42,2,3.16,3.35,4.2,7.82,5.89,15.76,11.62,19.75,21.09l-.8.66c-6.11-4.66-11.59-10.34-19.9-12.58l2.6,10.71-1.14.63c-4.58-8.46-12-12.81-20.87-15.17.3,3.47.58,6.62.85,9.76l-1.11.08Z"/><path class="cls-18" d="M182,267.65q-2.89-11.79-5.78-23.57c-.74-4.6,1.34-7.05,5.85-7.63l7.18-.93Q193.13,251,197,266.41A20.77,20.77,0,0,0,182,267.65Z"/><path class="cls-17" d="M189.26,235.52l-7.18.93c-4.51.58-6.59,3-5.85,7.63q-3.49-12.77-7-25.54c-.51-1.91-.86-3.86-1.29-5.79,1.14-1.44,2-3.52,3.46-4.19,3.09-1.4,6.53-2.05,9.82-3,.11.62.23,1.23.34,1.85.36.73.73,1.46,1.09,2.2.11.55.22,1.1.32,1.65l-1.23,1.25,1.84.95Q186.43,224.49,189.26,235.52Z"/><path class="cls-16" d="M181.25,205.55c-3.29,1-6.73,1.61-9.82,3-1.48.67-2.32,2.75-3.46,4.19l-4.92-25,1.1-11.56,10.91,1.65Q178.15,191.68,181.25,205.55Z"/><path class="cls-14" d="M189,464.94c-4.89-3.2-9.81-6.34-14.65-9.61s-9.45-6.49-14.08-9.87c-.69-.5-.85-1.72-1.62-3.41,7.54,2.31,14,4.63,20.68,6.23,5.44,1.31,10.78,1.85,14.86,6.73,2.28,2.72,6.18,3.45,9.6.08,1.72-1.7,4.17-2.65,6.29-3.94l2.25,2.15c-2.46,4.07,2.1,2.44,3,3.75l.95,2.25-4.2,2.87c-3.26-.31-6.62-1.24-9.78-.78C197.78,462,193.4,463.71,189,464.94Z"/><path class="cls-19" d="M182,267.65a20.77,20.77,0,0,1,15-1.24c.24.61.47,1.22.7,1.84-2,1.67-1.68,2.75.84,3.27,2.22,7.4,4.45,14.8,6.83,22.72H189.7C187.21,285.62,184.61,276.63,182,267.65Z"/><path class="cls-6" d="M194.69,397.69c0,7.52-8.11,7.76-11.2,12.91l3.2,1.93c-1.1,4.69-15.33,11.18-25,11.09l8-5.68c-3.38-2.35-6.11-4.41-9-6.21-4.24-2.64-8.6-5.1-12.91-7.64l.9-2c2.31.78,4.63,1.53,6.93,2.33,6.14,2.17,13.27,1.76,18.28,7.06.5.52,2.61.24,3.44-.38C183.17,406.79,188.8,402.29,194.69,397.69Z"/><path class="cls-10" d="M63.48,141.71c.56-1.26.84-3.35,1.72-3.65,8.69-2.94,17.47-5.58,27.17-8.6v5.71C84,140.43,75.52,145.59,67.24,151c-2.15,1.4-3.78,3.6-5.65,5.43l-1.46-.65c1.57-3.49,3.12-7,4.73-10.47C65.67,143.58,67.69,141.49,63.48,141.71Z"/><path class="cls-17" d="M189,464.94c4.44-1.23,8.82-2.9,13.34-3.55,3.16-.46,6.52.47,9.78.78-2.72,2.23-5.13,5.19-8.24,6.52a125,125,0,0,1-17.46,5.48c-2.12.56-4.52.09-6.79.09l-.26-1.22a58.15,58.15,0,0,0,7.16-4C187.67,468.11,188.16,466.32,189,464.94Z"/><path class="cls-20" d="M212.29,453.3,210,451.15c4.29-3.55,8.65-7,12.83-10.7a54.23,54.23,0,0,0,4.76-5.43c1.05,4.55-1.33,9.47-5.78,12.2C218.63,449.2,215.48,451.27,212.29,453.3Z"/><path class="cls-21" d="M237.68,129.93l2.19-5c10.44,3.37,14.61,6,15.17,9.45Z"/><path class="cls-10" d="M18.37,147.27l1.5,2.55L9.75,156.11l-.95-1.35Z"/><path class="cls-22" d="M276.43,20.73l14.17-.79.09,1.31H276.3Z"/><path class="cls-11" d="M128.2,62.76a8.77,8.77,0,0,1-5.88-9.55Z"/><path class="cls-12" d="M299.15,103.74c0-.95,0-1.91,0-2.86l8,4.84.08-.08Z"/><path class="cls-22" d="M21.38,42.61l-8.8,1.31-.18-1.26,8.86-1.15Z"/><path class="cls-6" d="M173.17,56.75l-2.38-.19L172.37,52l1.09.13C173.36,53.69,173.27,55.22,173.17,56.75Z"/><path class="cls-6" d="M97.42,73.87l-.09,2-4.09-1.2.05-.85Z"/><path class="cls-18" d="M198.51,271.52c-2.52-.52-2.84-1.6-.84-3.27Z"/><path class="cls-17" d="M216.28,459.3l-.95-2.25,4.57,1.3Z"/><path class="cls-23" d="M219.21,116.21c0-.59.11-1.19.16-1.79l3.4,1.79Z"/><path class="cls-10" d="M96,141.55l-2.69,1.34-1.43-1.65,3-1.19Z"/><path class="cls-16" d="M183.61,213.45l-1.84-.95,1.23-1.25C183.2,212,183.4,212.72,183.61,213.45Z"/><path class="cls-16" d="M182.68,209.6c-.36-.74-.73-1.47-1.09-2.2C182,208.13,182.32,208.86,182.68,209.6Z"/><path class="cls-12" d="M74.43,170.56l1,1.74-3.59.57-.33-.93Z"/><path class="cls-6" d="M162.19,71.73h-1.73l.73-1.8Z"/><path class="cls-23" d="M198.4,121.81l2.39-1.93Z"/><path class="cls-8" d="M159.55,86.63c2.26,1,2.29,1.94,0,2.87Z"/><path class="cls-12" d="M316.71,128.2l.36,2-.55.14-.61-1.51Z"/><path class="cls-6" d="M173.85,50.1l-.2-.16.3-.27Z"/><path class="cls-22" d="M5.8,45.13c0,.1,0,.25,0,.29s-.24.06-.36.09L5.46,45Z"/><path class="cls-22" d="M8.85,44.3l-.31.21-.24-.46c.12,0,.27-.08.37,0S8.79,44.2,8.85,44.3Z"/><path class="cls-15" d="M90.45,143l1.66-.48a7.77,7.77,0,0,1-.63,1A7.06,7.06,0,0,1,90.45,143Z"/><path class="cls-12" d="M307.11,105.72a1.34,1.34,0,0,1,.45.09c.06,0,0,.21.06.32l-.43-.49Z"/><path class="cls-4" d="M597.91,302.42h73.45V279.63c-13.81,0-27.42.19-41-.09a74.16,74.16,0,0,1-17.23-2c-9.59-2.53-14.49-9.1-14.51-19q-.17-79.64-.06-159.28a6.68,6.68,0,0,1,.27-1.23h58.71V234.12H672V97.93h59.43v4.85q0,110.1,0,220.2c0,15.13-6.75,22.63-21.92,24.23-3.79.4-7.61.47-11.45.69,0-4.46.47-8.92-.15-13.22-.46-3.21-1.48-7.62-3.75-9-3.62-2.17-6.23,1.92-8.2,4.66-3.26,4.56-6.21,9.36-9.11,14.17-2.19,3.63-9.73,5.34-12.49,2.14s-5.07-1.81-7.89-.68c-2.21.9-4.59,1.89-6.91,1.93-10.15.21-20.31.27-30.45,0-2.85-.07-5.64-1.62-8.51-2.22a9,9,0,0,0-4.25.23c-2.66.79-5.21,1.9-8.46,3.12Z"/><path class="cls-4" d="M451.4,154.45H437.27V109.68h14V97.92h59.42v11.49H584.2v45H511.09v79.71h14.39V166.2h59v5.3q0,41.17,0,82.35c0,16.7-7,25.06-23.82,25.44-28.43.64-56.89.21-85.34.13a31,31,0,0,1-7.36-1.19c-11.44-2.9-16.55-9.87-16.57-22.76q-.06-47.65,0-95.33Z"/><path class="cls-4" d="M531.57,431.47,537,423.6c.77,4.76,3,8.82-.24,12.92-3.6,4.49-3.45,9.48-2.16,14.64.72,2.86,1.6,5.68,2.33,8.54.79,3.13.87,7,5.54,4.41l4.42,16.74H529.81c-14,0-28,.23-41.94-.05a64.64,64.64,0,0,1-16.23-2.18c-10-2.84-14.42-9.79-14.44-21.24-.05-28.62,0-57.24,0-85.86,0-15.31-.08-30.62-.12-45.93-.05-16.49,7.8-26.26,24.38-26.64,28.08-.64,56.21.13,84.31.62,4,.07,8.2,1.51,12,3.09,8,3.37,12.47,9.09,12.28,18.5-.38,19.29,0,38.6-.22,57.9a8.92,8.92,0,0,1-2.49,5.83c-6.85,6.32-9,14.45-9.89,23.23-.18,1.69-1.18,3.3-1.79,4.95l-2-.67c.34-2,.57-4.06,1-6a40.3,40.3,0,0,0-.65-22.54c-3.11-9.34-12.34-13.83-21.45-10-12.14,5.07-21.29,13.92-28.93,24.29a97.26,97.26,0,0,0-10.75,17.79c-4.78,10.77-.09,20.71,4.48,30.35.31.66,3.22,1,3.88.42,3.75-3.51,7.28-7.29,10.67-11.16.64-.74.33-2.31.46-3.49Zm-.88-61.33V344.62H516.85v25.52Z"/><path class="cls-5" d="M335.11,480.64v-4.9q0-75.63,0-151.25c0-16.23,6.74-24.55,23.12-25,29.23-.75,58.5-.21,88-.21v45h-51.6v11.06h50.76v44.42a10.15,10.15,0,0,0-1.13-2.18c-1.59-1.73-3.37-4.77-4.92-4.68-1.81.11-4.16,2.71-5,4.75-1.18,2.9-2.76,3.6-5.61,3.57-11.3-.13-22.6-.05-34.33-.05v12.64c-10.47-2.88-20.16-5.49-29.82-8.22-2.85-.8-5.58-2-8.43-2.83-4.13-1.14-6.29.54-5.41,4.65.54,2.52,2.35,4.77,3.63,7.11,1.48,2.69,2.42,6.05,4.62,7.88a147.06,147.06,0,0,0,15.75,10.91c2.73,1.72,5.86,2.82,8.95,4.27-3.17,3.45-9.59,4-8.26,9.67.53,2.23,4.59,3.62,7.23,5.54l-3.24,2.76.24,1.43L394,456v24.69Z"/><path class="cls-3" d="M427.5,279.44H368.85V98H427.5Z"/><path class="cls-12" d="M637.76,407.29l-5.9,2.81c-1.54-5.63-4.11-1.51-6.34-.68l-4.43,2.85c-.73-1.29-1.17-3.29-2.25-3.74-3.68-1.52-8.87,1.52-10.39,5.66l-3.1-1.7-4.81-.18-4.12-5.87,15.65-2.14c3.31,3.66,6.13,3.29,7.69-1l1-2,6.58-2.16c6,2.28,7.94,1.7,13-4.07,1.58-1.83,3-3.83,4.44-5.75l5.82,1,8.92-1.11,3.66.07c4.13,2.59,6.2-.72,8.64-3l8.09-2.3c2.33,2.34,4.85,3.58,7.94,1.3l6.85-1,8.27-5,1.8,4.26c-1.52,1.92-3,3.92-4.59,5.74-2.88,3.2-6.07,4.7-9.78,1.19-9.87,7.7-10.21,7.73-17.19,1-5.82,11.36-16.68,6.67-26,8.13-.46,1.84-.93,3.74-1.41,5.63-2.2,1.33-5.3-2.84-7.07,1.15l-1,.87Z"/><path class="cls-7" d="M589.49,448.48c4,28.36-11.91,33.41-35.25,32,3-6.57,3.9-13.17-.25-20.5Z"/><path class="cls-12" d="M737.38,392l6.87-12.27-.45-.53c-3.56,2.77-7.18,5.46-10.66,8.32s-6.74,4.72-9.47-.28c-2.78,1.78-5.22,3.74-8,5-4.11,1.91-6.72.14-6.79-4.51a74.12,74.12,0,0,1,.78-8.39l-.08,0h1l5.17,0,5.42,1.08,9.34-1,1.07-1.08,0,.1c4.46-2.82,9.24-5.24,13.3-8.55,4.45-3.64,8.17-8.15,12.34-12.14a19.64,19.64,0,0,1,4-2.33c.53,1.8,1.93,3.93,1.41,5.35a42,42,0,0,1-5.05,9c-4.54,6.7-9.26,13.27-13.91,19.89l1,1.09,18.27-15.23,1.17,1.11c-4.15,7-10.64,12-16.07,17.94Z"/><path class="cls-20" d="M547.73,435.31c4.61-1.52,9.23-3,13.83-4.57,1.69-.57,3.35-1.24,5-1.86,1.79.45,3.66,1.47,5.36,1.25,8-1.06,16-2.46,24.06-3.74.42,1.67.83,3.34,1.5,6L548.84,447.8c.51,3.16,1,5.88,1.4,8.61l-5.52-1.11-.86-3.53c-2.43-1.14-5.48-1.59-6.06-3-2.06-5.07-1.52-10,3.41-13.61Z"/><path class="cls-6" d="M524,401.86c7.52-10.93,16.55-20.2,29-25.47,12.82-5.42,18.69,5,20.71,14.75.36,1.71-.18,3.61-.3,5.41L566,395.08c.31-1.8,1-3.62.86-5.39-.21-3-1.52-6.29-5.2-4.64C553,389,545.53,394.56,541,403.28c-3.11-.31-6.21-.65-9.33-.91C529.1,402.15,526.55,402,524,401.86Z"/><path class="cls-10" d="M715.8,379.29l-5.17,0-.55-1.59-.48,1.59.08,0-4.93,4.27-1.8-4.26c4.34-5.56,9.4-10.67,11.27-18.05a91.29,91.29,0,0,0-15.05,9.29c-1.85,1.41-3,3.8-4.41,5.75l-1.38,2.61,2.17.43-.87,5-6.85,1c-3.48-7.59-1.14-13.46,4.58-19.15a67.81,67.81,0,0,1,21.91-15.05c1.51-.62,3.39-1.49,4.72-1.07a6.19,6.19,0,0,1,3.62,3.59c.35,1.23-1,2.95-1.83,4.94,4.45,5.31-.67,9.36-2.94,14.05A46,46,0,0,0,715.8,379.29Z"/><path class="cls-6" d="M656.54,373c3.56-3.95,6.9-8.15,10.81-11.72,1.27-1.16,4-.7,6.77-1.06,3.18-11.76,7.61-24.19,19.52-33.56a29.3,29.3,0,0,1-.9,22.18c-3.2,7.38-7.27,14.39-11,21.56l-2.1-3.48c5.89-8.26,10-17.15,10.2-27.44-7.68,7.39-8.49,17.41-10.73,26.89l-14.75,4.14q-3.18,2-6.37,4Z"/><path class="cls-9" d="M612.07,404.3l-15.64,2.14q-1.59-5.71-3.16-11.43l-1.43-.36-4.44,17.72-6.76,1c-1.61-9.08.27-17.33,6.21-24.41a10.82,10.82,0,0,1,5.61-3.68c1.31-.26,3,1.9,4.66,2.64.65.29,1.71-.36,2.58-.58l6.32,1.9,1.05-.22,3.56.29c-.68,2.32-1.72,4.62-1.89,7-.09,1.29,1.3,2.68,2,4l1.16,0Z"/><path class="cls-10" d="M656.54,373l1.48,1.49-7.44,15.87-5.82-1L649,372.7l-1.06-.45L637.89,391.1l-1.41-.43a74.17,74.17,0,0,1,2.36-7.07c3.93-8.91,7.88-17.81,12.06-26.6,2.24-4.72,4.54-9.71,11.94-9.67-3.56,9.86-7,19.28-10.37,28.7-.14.34-.29.66-.44,1l.7-.66Z"/><path class="cls-9" d="M524,401.86c2.55.16,5.1.29,7.64.51,3.12.26,6.22.6,9.33.91q2.4,11,4.81,22c-1-1.75-2-3.5-3-5.42l-1.93,1.44c-.9-4.76-1.8-9.53-2.87-15.24l-10.83,14.33-12.92,1.87c.39-8.06,5-14.12,9.63-20.15l.65.48-.45-.69Z"/><path class="cls-8" d="M610.63,389.31l-3.55-.29c2.46-9.66,5.2-19.3,1.47-29.23-4.81,9.53-3.19,19.53-2.53,29.45l-6.32-1.9c-.48-11.87-.32-23.66,5-34.65.88-1.79,2.56-3.19,3.87-4.78,1.13,1.65,2.57,3.15,3.34,4.95,3.37,7.85,1.7,15.84.4,23.82C611.67,380.87,611.2,385.1,610.63,389.31Z"/><path class="cls-12" d="M383.48,427.6c-6.12-2.93-12.43-5.54-18.29-8.93-3.36-1.94-6.06-5.08-8.85-7.88-.6-.6-.29-2.1-.46-3.71,8.39,2.92,16.19,5.84,24.13,8.3,3.69,1.14,7.71,1.18,11.47,2.14,1.65.41,3,1.85,4.55,2.83a25.65,25.65,0,0,1-3.72,3C389.44,424.89,386.43,426.2,383.48,427.6Z"/><path class="cls-10" d="M617,392.31c1.27-10.46,5.43-19.36,14.55-25.17,1.77-1.12,5.59-1.76,6.57-.76a9.64,9.64,0,0,1,2.38,7.36c-1.35,7.67-6.77,13.07-11.86,18.52-.68.72-1.43,1.37-2.14,2.05Zm8.1-1.83c7.13-5.54,10.16-12.51,7.88-18.09C627.6,377.15,624,382.44,625.1,390.48Z"/><path class="cls-15" d="M730.56,379.36l-9.34,1c-2.21-8.35,4-13.21,8.16-18.69,2.33-3.06,6-5.13,8.88-7.76,2.34-2.1,4.67-1.45,5.77.78a6.14,6.14,0,0,1-.7,5.55c-4.36,4.88-9.18,9.36-13.84,14l-.57,1.3,1.11-.85c.53,1.23,1.05,2.47,1.57,3.7l0-.1Z"/><path class="cls-23" d="M580.64,413.37l6.76-1q2.24,3.81,4.48,7.62l7.29-4.79,1.49-2.49-.12-.4,4.81.18a116,116,0,0,1-4.8,11.61c-.64,1.22-3,1.55-4.54,2.29-8,1.28-16,2.68-24.06,3.74-1.7.22-3.57-.8-5.36-1.25l17.77-6.59-2.6-4-.29-.91C581.19,416.05,580.92,414.71,580.64,413.37Z"/><path class="cls-10" d="M664.39,370.51l14.75-4.14a.85.85,0,0,1,.53.55l2.1,3.48c-.68,1.1-1.35,2.21-2,3.31-1.08,1.72-3.31,3.55.77,4.62.28.08-.38,3.71-.6,5.69l-8.09,2.3c-.53-2.7-1.07-5.4-1.64-8.27-2.34,3.78-4.67,7.52-7,11.27l-3.66-.07a25.62,25.62,0,0,0,2.36-4.32C663.41,380.26,667.17,375.94,664.39,370.51Z"/><path class="cls-14" d="M426,428.24l-2.87,1.48c-2.51-4.85-6.82-1.47-10.23-2.24-2.14-.48-4.27-1-6.41-1.5,9-6.89,18-13.66,26.85-20.74,2.35-1.88,4-4.7,6.85-8.26,0,2.93.48,4.94-.08,6.6a18.35,18.35,0,0,1-10,11.07c-4.28,2-8.48,4.35-10.68,9.06L426,426.4Z"/><path class="cls-20" d="M406.48,426c2.14.5,4.27,1,6.41,1.5,3.41.77,7.72-2.61,10.23,2.24l-9.1,8.54c-1.28-.66-2.61-2-3.84-1.88-5.88.44-11.74,1.25-17.61,1.93-1.22-2.33-2.45-4.65-3.68-7,4.81-1,9.64-1.88,14.41-3,1-.24,1.83-1.39,2.74-2.12A.28.28,0,0,1,406.48,426Z"/><path class="cls-16" d="M737.38,392l10.6,2.57-17.77,21.76c-3.1-4-3.25-7.67-1.41-11.2,2.14-4.08,4.78-7.91,7.19-11.85l1.46-1.16Z"/><path class="cls-23" d="M540.81,421.3l1.93-1.44c1.07,1.92,2,3.67,3,5.42,1-.29,2.51-.25,3-.93,2.49-3.24,4.71-6.69,7-10.06l6.28,2.68-14.39,18.34-6.52-.19Q541,428.21,540.81,421.3Z"/><path class="cls-18" d="M392.57,438.31c5.87-.68,11.73-1.49,17.61-1.93,1.23-.09,2.56,1.22,3.84,1.88-11.07,4.09-21.85,9.3-33.94,9.29l-.78-1.7Z"/><path class="cls-9" d="M562.12,417l-6.28-2.68L566,395.08l7.41,1.47Z"/><path class="cls-23" d="M638.67,406.46c1.77-4,4.87.18,7.07-1.15-.68,5.23-1.14,10.5-2.16,15.66-.45,2.23-2.07,4.23-3.49,7-3.61-4.3-3.65-8.28-3.12-12.43.34-2.73.53-5.49.79-8.23l-.08,0Z"/><path class="cls-23" d="M514.19,422.26l12.92-1.87c-.49,1.13-1,2.26-1.85,4.24l4.38-1.75.52.73c-2.84,3.05-5.54,6.27-8.58,9.11-2.19,2-4.47,1.32-5.39-1.44A81.79,81.79,0,0,1,514.19,422.26Z"/><path class="cls-14" d="M406,426.18c-.91.73-1.71,1.88-2.74,2.12-4.77,1.15-9.6,2-14.41,3l-5.41-3.73c2.95-1.4,6-2.71,8.83-4.26a25.65,25.65,0,0,0,3.72-3Z"/><path class="cls-18" d="M544.72,455.3l5.52,1.11c1.11,2.9,2.4,5.74,3.27,8.71.94,3.19.17,6-3.15,8.6C546.45,467.84,545.71,461.53,544.72,455.3Z"/><path class="cls-24" d="M666.21,297.81H621.78C624.27,296.11,660.47,295.57,666.21,297.81Z"/><path class="cls-23" d="M608.45,414.19c1.52-4.14,6.71-7.18,10.39-5.66,1.08.45,1.52,2.45,2.25,3.74C617.12,418.7,613.92,419.18,608.45,414.19Z"/><path class="cls-9" d="M617,392.31l9.5,2c.28,1.61.56,3.23.85,4.85l-6.58,2.16h-1.95c-.41-1.31-.81-2.62-1.21-3.93l-.57-3.06Z"/><path class="cls-24" d="M452,318.4a3.1,3.1,0,0,1,.79-.17v26.6l-2.37-.06Z"/><path class="cls-23" d="M625.52,409.42c2.23-.83,4.8-4.95,6.34.68Z"/><path class="cls-10" d="M617,394.33l.57,3.06Z"/><path class="cls-20" d="M426,428.24V426.4l1.81.89Z"/><path class="cls-10" d="M618.82,401.32h1.95l-1,2C619.45,402.64,619.13,402,618.82,401.32Z"/><path class="cls-23" d="M530.66,421.09l1-.59-.31,1.4Z"/><path class="cls-23" d="M531.38,421.9l-1.39.2.67-1Z"/><path class="cls-9" d="M581.47,417.39l.29.91A.9.9,0,0,1,581.47,417.39Z"/><path class="cls-12" d="M737.45,392.08,736,393.24Z"/><path class="cls-23" d="M611.92,400.29l-1.16,0,.38-.68Z"/><path class="cls-6" d="M524,401.9l.45.69-.65-.48Z"/><path class="cls-9" d="M128,439.43l1.53,4.39c-4.55,5.78-12,7.26-20.08,7.54l6-4L97.39,435.64l.75-1.57c6.63,2.49,13.48,4.51,19.79,7.63,4.24,2.09,5.44-2.19,8.31-2.52Z"/><path class="cls-18" d="M128,439.43l-1.8-.25,10-8.9C136.13,436.25,131.29,437.12,128,439.43Z"/><path class="cls-22" d="M271.39,420.09c-2.18-2.15-4.68-4.07-6.39-6.54-.8-1.17-.53-3.6.14-5.06a4.2,4.2,0,0,1,3.71-1.6c6.06,1.55,12,3.4,18,5.35,1.5.5,2.74,1.76,4.91,3.21,3.57-3.14,7.53-6.28,11-9.85,2.11-2.15,4.14-3.71,6.84-1.86s3.48,4.78,1.49,7.44c-4.12,5.51-4.34,13.77-12.81,16.63l2.84,1.93A32.15,32.15,0,0,1,280.08,439l6.81-5.05a33.42,33.42,0,0,0-5.15-.51c-3,.26-4.13-1.07-5.42-3.78s-4.31-4.59-6.46-6.93c-.16-.16.55-1.12.85-1.71l1.19,0Zm9.71,8.59c7.18-1.46,15.14-1.13,19.48-8.19-.9-1.26-1.82-2.55-2.91-4.06-1,.59-2.21,1.73-3.55,1.95a12.18,12.18,0,0,1-5.67-.25c-6.35-2.13-12.61-4.56-18.9-6.88-.28.58-.55,1.16-.82,1.75l18.37,11.45ZM307,408.12l-8.34,7.22C305.82,413.57,306.22,413.2,307,408.12Z"/><path class="cls-2" d="M530.69,370.14H516.85V344.62h13.84Z"/><path class="cls-2" d="M600.54,412.31l.12.41c-.5.82-1,1.65-1.49,2.48L591.88,420q-2.25-3.81-4.48-7.62l4.44-17.72,1.43.36q1.58,5.72,3.16,11.43Z"/><path class="cls-1" d="M694.76,376.31c1.45-1.95,2.56-4.34,4.41-5.75a91.29,91.29,0,0,1,15.05-9.29c-1.87,7.38-6.93,12.49-11.27,18.05l-8.27,5,.87-5C695.29,378.34,695,377.33,694.76,376.31Z"/><path class="cls-2" d="M664.39,370.51c2.78,5.43-1,9.75-2.53,14.42a25.62,25.62,0,0,1-2.36,4.32l-8.92,1.11L658,374.49Q661.21,372.51,664.39,370.51Z"/><path class="cls-22" d="M663.16,389.32c2.33-3.75,4.66-7.49,7-11.27.57,2.87,1.11,5.57,1.64,8.27C669.36,388.6,667.29,391.91,663.16,389.32Z"/><path class="cls-2" d="M638.67,406.46l-1,.87Z"/><path class="cls-2" d="M709.6,379.33l.48-1.59.55,1.59Z"/><path class="cls-2" d="M730.56,379.36l1.07-1.08Z"/><path class="cls-2" d="M566,395.08l-10.15,19.21c-2.32,3.37-4.54,6.82-7,10.06-.52.68-2,.64-3,.93q-2.41-11-4.81-22c4.56-8.72,12-14.33,20.68-18.23,3.68-1.65,5,1.6,5.2,4.64C567,391.46,566.3,393.28,566,395.08Zm-18.71,17.21c7.2,1.25,9-.41,13.46-12.75C553.48,401.67,547,407.82,547.28,412.29Z"/><path class="cls-12" d="M694.76,376.31c.26,1,.53,2,.79,3l-2.17-.43Z"/><path class="cls-1" d="M679.14,366.37c2.24-9.48,3.05-19.5,10.73-26.89-.2,10.29-4.31,19.18-10.2,27.44A.85.85,0,0,0,679.14,366.37Z"/><path class="cls-22" d="M606,389.24c-.66-9.92-2.28-19.92,2.53-29.45,3.73,9.93,1,19.57-1.47,29.23Z"/><path class="cls-2" d="M652.73,376.36l-.7.66c.15-.33.3-.65.44-1C652.46,376,652.73,376.36,652.73,376.36Z"/><path class="cls-22" d="M625.1,390.48c-1.11-8,2.5-13.33,7.88-18.09C635.26,378,632.23,384.94,625.1,390.48Z"/><path class="cls-2" d="M730,374.68l-1.11.85.57-1.3Z"/><path class="cls-12" d="M599.17,415.2c.5-.83,1-1.66,1.49-2.48C600.16,413.54,599.67,414.37,599.17,415.2Z"/><path class="cls-12" d="M281.1,428.68l6-4.23L268.73,413c.27-.59.54-1.17.82-1.75,6.29,2.32,12.55,4.75,18.9,6.88a12.18,12.18,0,0,0,5.67.25c1.34-.22,2.53-1.36,3.55-1.95,1.09,1.51,2,2.8,2.91,4.06C296.24,427.55,288.28,427.22,281.1,428.68Z"/><path class="cls-17" d="M307,408.12c-.73,5.08-1.13,5.45-8.34,7.22Z"/><path class="cls-25" d="M547.28,412.29c-.3-4.47,6.2-10.62,13.46-12.75C556.24,411.88,554.48,413.54,547.28,412.29Z"/></g></g></svg>