<svg xmlns="http://www.w3.org/2000/svg" viewBox="0 0 982.5 954.22"><defs><style>.cls-1{fill:#350023;}.cls-1,.cls-2{stroke:#000;stroke-miterlimit:10;stroke-width:5px;}.cls-2{fill:#7f004b;}</style></defs><g id="Layer_1" data-name="Layer 1"><polygon class="cls-1" points="189.27 58.79 155.27 80.79 76.27 221.79 48.27 394.79 97.27 497.79 234.27 665.79 435.27 788.79 519.27 831.79 592.27 780.79 599.27 693.79 726.27 460.79 825.27 235.79 856.27 149.79 849.27 73.79 755.27 115.79 678.27 220.79 598.27 299.79 643.27 381.79 585.27 439.79 570.27 523.79 609.27 578.79 565.27 628.79 560.27 667.79 564.27 636.79 552.27 599.79 485.27 554.79 545.27 385.79 483.27 302.79 565.27 209.79 587.27 151.79 507.27 78.79 367.27 29.79 231.27 36.79 189.27 58.79"/><polygon class="cls-1" points="222.27 247.79 209.27 248.79 147.27 271.79 71.27 423.79 68.27 528.79 201.91 710.35 399.9 864.35 572.9 951.35 644.9 905.35 771.9 783.35 917.9 514.35 979.9 244.35 934.9 115.35 832.9 91.35 738.9 133.35 661.9 238.35 581.9 317.35 626.9 399.35 607.27 468.79 574.27 559.79 592.9 596.35 658.27 673.79 608.27 762.79 391.27 768.79 317.27 694.79 263.27 680.79 288.27 600.79 329.27 512.79 255.27 473.79 255.27 473.79 293.27 251.79 318.27 300.79 249.27 241.79 222.27 247.79"/></g><g id="Layer_2" data-name="Layer 2"><polygon class="cls-2" points="143.52 31.52 109.52 53.52 30.52 194.52 2.52 367.52 13.52 476.52 172.52 665.52 370.52 819.52 543.52 906.52 615.52 860.52 742.52 738.52 888.52 469.52 950.52 199.52 905.52 70.52 803.52 46.52 709.52 88.52 632.52 193.52 552.52 272.52 597.52 354.52 539.52 412.52 481.52 509.52 563.52 551.52 519.52 601.52 514.52 640.52 466.52 594.52 506.52 572.52 439.52 527.52 499.52 358.52 437.52 275.52 519.52 182.52 541.52 124.52 461.52 51.52 321.52 2.52 185.52 9.52 143.52 31.52"/></g><g id="Layer_3" data-name="Layer 3"><polygon class="cls-1" points="162.27 207.79 230.27 163.79 308.27 157.79 367.27 185.79 395.27 225.79 374.27 278.79 281.27 296.79 176.27 277.79 148.27 232.79 162.27 207.79"/><polygon class="cls-1" points="797.27 271.09 825.27 323.09 842.27 375.09 842.27 441.09 811.27 507.09 755.27 512.09 712.27 490.09 712.27 399.09 728.27 321.09 748.27 282.09 769.27 265.09 797.27 271.09"/><polygon class="cls-2" points="144.66 177.79 212.66 133.79 290.66 127.79 349.66 155.79 377.66 195.79 356.66 248.79 263.66 266.79 158.66 247.79 130.66 202.79 144.66 177.79"/><polygon class="cls-2" points="771.27 259.49 799.27 311.49 816.27 363.49 816.27 429.49 785.27 495.49 729.27 500.49 686.27 478.49 686.27 387.49 702.27 309.49 722.27 270.49 743.27 253.49 771.27 259.49"/></g><g id="Layer_4" data-name="Layer 4"><polygon class="cls-1" points="155.72 282.79 137.72 338.79 146.72 363.79 164.72 363.79 175.72 334.79 155.72 282.79"/><polygon class="cls-2" points="149.27 268.79 131.27 324.79 140.27 349.79 158.27 349.79 169.27 320.79 149.27 268.79"/><polygon class="cls-1" points="207.22 373.79 189.22 429.79 198.22 454.79 216.22 454.79 227.22 425.79 207.22 373.79"/><polygon class="cls-2" points="198.77 348.79 180.77 404.79 189.77 429.79 207.77 429.79 218.77 400.79 198.77 348.79"/><polygon class="cls-1" points="699.27 504.01 643.27 486.01 618.27 495.01 618.27 513.01 647.27 524.01 699.27 504.01"/><polygon class="cls-2" points="680.27 496.57 624.27 478.57 599.27 487.57 599.27 505.57 628.27 516.57 680.27 496.57"/></g></svg>