<svg xmlns="http://www.w3.org/2000/svg" viewBox="0 0 1920 1080"><defs><style>.cls-1{fill:#fff;}</style></defs><g id="Layer_2" data-name="Layer 2"><g id="Layer_1-2" data-name="Layer 1"><path class="cls-1" d="M0,0H1920V1080H0ZM696.4,547.58c-1.29-2.35-2.2-3.89-3-5.49-7.42-14.9-14.75-29.84-22.34-44.65-.86-1.69-3.13-3.7-4.82-3.77-9.15-.37-18.33-.24-27.49-.09a4.82,4.82,0,0,0-3.59,1.85c-2.42,4.28-4.47,8.77-6.89,13.65l7.91.84v76.7h31.2V540.14a10.92,10.92,0,0,1,3,4c6.52,13.1,13.22,26.13,19.44,39.37,1.73,3.66,4.22,3.56,7.24,3.47s5.9.57,7.78-3.43c6.07-13,12.66-25.66,19.07-38.46.77-1.53,1.66-3,2.5-4.51l1,.28v45.76h31.28V493.49c-10.37,0-20.51.18-30.63-.09-3.74-.1-5.58,1.2-7.18,4.51C713.07,514.23,704.92,530.42,696.4,547.58ZM971,509.48h69.75v30.23H1010V517c-6.26,0-11.92-.27-17.54.06-9.36.54-13.5,5.11-13.5,14.29v55.27h31.27v-30.4A46,46,0,0,0,1015,556c5-.85,7.79,1,9.79,5.81,3.13,7.51,7,14.72,10.77,22,.71,1.35,2.42,3.08,3.7,3.11,10.77.25,21.55.15,33.12.15-5.18-10.58-10-20.52-15-30.62,1-.24,1.62-.4,2.26-.54,10.45-2.23,12.81-5.08,12.81-15.57,0-10.16-.34-20.34.1-30.49.46-10.58-3.1-15.91-15.89-16.14-24.82-.45-49.65-.16-74.48-.08-1.32,0-3.29.52-3.83,1.46C975.88,499.42,973.75,504.06,971,509.48ZM904.8,494.12c-7.41,0-14.26-.61-20.94.17-7.2.84-10.62,5.24-10.65,12.25q-.15,33.7,0,67.42c0,6.8,3,10.35,9.6,12.14a22.73,22.73,0,0,0,5.89.86c21,.06,42,.1,62.93,0,9.79-.05,15.17-4.59,15.19-12.68.06-22.8,0-45.61,0-68.42,0-5.36-2.63-8.9-7.43-10.65a27.19,27.19,0,0,0-8.75-1.65c-11.65-.18-23.31-.22-34.95.08-1.76.05-4,1.81-5.09,3.4-2,2.78-3.27,6-4.85,9.1l-1-.4Zm366.13,15.67c2.21,11,4.53,14,12.89,14.89,6.21.64,12.53.13,19.14.13,0-7,.61-13.74-.26-20.26-.42-3.1-3.07-6.7-5.77-8.47s-6.92-2.44-10.48-2.48c-20.16-.21-40.33-.12-60.5-.07a27.88,27.88,0,0,0-6.43.73c-7.06,1.71-10,5.48-10,12.79,0,9.5-.08,19,0,28.5.06,6.22,2.49,9.63,8.49,11.34a35.79,35.79,0,0,0,9.34,1.22c12.83.13,25.67,0,38.5.07,1.75,0,3.5.16,5.27.24V570.8h-30c-.71-9.17-2.42-12.65-9.06-13.9-7.21-1.35-14.69-1.28-22.54-1.87v15.65c0,12.19,4.16,16.29,16.59,16.32,10.16,0,20.33,0,30.5,0,10.33,0,20.66.09,31,0,10.9-.12,15.42-4.75,15.42-15.53v-23c0-11.23-4.27-15.75-15.52-15.91-11.83-.17-23.67-.18-35.49.1-1.81,0-4.13,1.62-5.23,3.18-2,2.89-3.33,6.29-4.94,9.48l-.69-.21v-35.3ZM869,369.14a9.88,9.88,0,0,0-.45,1.87c0,26.33-.1,52.65,0,79,0,6.63,3.23,10.15,10.11,11.7a38.92,38.92,0,0,0,8.43.78q28.23.11,56.48,0a41.36,41.36,0,0,0,7.95-.65c7.31-1.46,10.45-5.45,10.46-12.89V369.4H930.55v77.1c-6.8,0-13.13-.25-19.41.15a8,8,0,0,0-5.17,3.26c-2,2.89-3.36,6.28-5,9.46l-1.11-.25v-90ZM971,407.5c0,14.25,0,27.69,0,41.13,0,7.85,3.06,11.71,10.7,13.2a42.13,42.13,0,0,0,7.94.65q28,.07,55.95,0c15.2,0,19.18-3.7,18.83-18.64-.28-12.26-.29-24.29,7.21-34.88.1-.15-.17-.56-.29-.94l-6.3-.52c-1.66-13.62-1.31-26.58,7.75-38.52-20.94,0-40.41,0-59.89.05-1.2,0-3,.36-3.47,1.16-2.56,4.57-4.79,9.31-7.54,14.81h30.77c1.68,13.77,1.08,26.71-7.7,38.54l7.83.52v22h-30.62c0-8.49,0-16.62,0-24.74,0-7.55-2.45-11.37-9.89-12.61C985.48,407.64,978.47,407.89,971,407.5ZM802.19,539.87V517H797c-4.17,0-8.34-.2-12.49.08-9.35.63-13.49,5.13-13.49,14.31v55.29h31.39V556c15.41,0,30.22.1,45-.08a33,33,0,0,0,9.73-1.68c4.74-1.54,7.29-5.12,7.31-10.2q.06-19.23,0-38.47c0-5.55-3-9.07-8.12-10.63a28,28,0,0,0-7.82-1.37q-37.21-.17-74.43,0c-1.3,0-3.22.62-3.76,1.57-2.51,4.39-4.63,9-7.33,14.43h69.76v30.31Zm314.65,7.93,8.37.71v38.24h31.3c0-6.51.3-12.82-.07-19.1-.69-11.83,0-23.25,7.11-33.39.21-.3,0-.88,0-1.48l-6.62-.63V509.51h5.89c10.16,0,20.32.07,30.48-.08,1.59,0,3.94-.62,4.62-1.75,2.59-4.31,4.64-8.94,7.26-14.17-13.63,0-26.26-.08-38.88.12-1.21,0-2.79,1.51-3.51,2.72-1.9,3.21-3.43,6.65-5.1,10l-1.26-.17V493.5c-23.65,0-46.46,0-69.27.09a4.74,4.74,0,0,0-3.48,2c-2.4,4.28-4.47,8.74-7.07,14h48.21C1125.65,523.13,1126.67,536.09,1116.84,547.8ZM784.71,424.08v38H816V423.76h32.28V407.83c-4.72,0-9.27.6-13.61-.12-8.81-1.46-14.16,1.77-16.54,10.28a19.06,19.06,0,0,1-1.86,3.2V384.83c12.38,0,24.36.05,36.33-.06,1.5,0,3.79-.36,4.35-1.34,2.6-4.5,4.71-9.28,7.23-14.43-13.34,0-25.82-.08-38.31.13-1.34,0-3.08,1.5-3.9,2.77-2,3.08-3.48,6.44-5.17,9.69l-1.11-.38V369c-10.07,0-19.7,0-29.32.05a3.21,3.21,0,0,0-2.43,1.16c-2.48,4.6-4.77,9.31-7.29,14.32l7.88.66c0,6.93.93,13.59-.26,19.84s-4.54,12.23-7,18.59ZM592.39,509.79v76.94h31.18V493.54c-9.89,0-19.67-.05-29.45.09a3.81,3.81,0,0,0-2.56,1.89c-2.3,4.34-4.41,8.78-6.83,13.68ZM1111,369c-10,0-19.49,0-29,.06a3.75,3.75,0,0,0-2.85,1.36c-2.38,4.5-4.5,9.14-6.89,14.1l7.77.7v76.93H1111Z"/><path d="M696.4,547.58c8.52-17.16,16.67-33.35,24.55-49.67,1.6-3.31,3.44-4.61,7.18-4.51,10.12.27,20.26.09,30.63.09v93.16H727.48V540.89l-1-.28c-.84,1.5-1.73,3-2.5,4.51-6.41,12.8-13,25.51-19.07,38.46-1.88,4-4.72,3.35-7.78,3.43s-5.51.19-7.24-3.47c-6.22-13.24-12.92-26.27-19.44-39.37a10.92,10.92,0,0,0-3-4v46.48h-31.2v-76.7l-7.91-.84c2.42-4.88,4.47-9.37,6.89-13.65a4.82,4.82,0,0,1,3.59-1.85c9.16-.15,18.34-.28,27.49.09,1.69.07,4,2.08,4.82,3.77,7.59,14.81,14.92,29.75,22.34,44.65C694.2,543.69,695.11,545.23,696.4,547.58Z"/><path d="M971,509.48c2.71-5.42,4.84-10.06,7.36-14.46.54-.94,2.51-1.46,3.83-1.46,24.83-.08,49.66-.37,74.48.08,12.79.23,16.35,5.56,15.89,16.14-.44,10.15-.09,20.33-.1,30.49,0,10.49-2.36,13.34-12.81,15.57-.64.14-1.27.3-2.26.54,5,10.1,9.81,20,15,30.62-11.57,0-22.35.1-33.12-.15-1.28,0-3-1.76-3.7-3.11-3.77-7.23-7.64-14.44-10.77-22-2-4.79-4.83-6.66-9.79-5.81a46,46,0,0,1-4.77.28v30.4H979V531.39c0-9.18,4.14-13.75,13.5-14.29,5.62-.33,11.28-.06,17.54-.06v22.67h30.75V509.48Z"/><path d="M904.8,494.12v11.63l1,.4c1.58-3.06,2.88-6.32,4.85-9.1,1.13-1.59,3.33-3.35,5.09-3.4,11.64-.3,23.3-.26,34.95-.08a27.19,27.19,0,0,1,8.75,1.65c4.8,1.75,7.44,5.29,7.43,10.65,0,22.81,0,45.62,0,68.42,0,8.09-5.4,12.63-15.19,12.68-21,.09-42,0-62.93,0a22.73,22.73,0,0,1-5.89-.86c-6.64-1.79-9.57-5.34-9.6-12.14q-.12-33.72,0-67.42c0-7,3.45-11.41,10.65-12.25C890.54,493.51,897.39,494.12,904.8,494.12ZM935,571V509.84H905.16V571Z"/><path d="M1270.93,509.79h-29.8v35.3l.69.21c1.61-3.19,2.91-6.59,4.94-9.48,1.1-1.56,3.42-3.14,5.23-3.18,11.82-.28,23.66-.27,35.49-.1,11.25.16,15.52,4.68,15.52,15.91v23c0,10.78-4.52,15.41-15.42,15.53-10.34.11-20.67,0-31,0-10.17,0-20.34,0-30.5,0-12.43,0-16.58-4.13-16.59-16.32V555c7.85.59,15.33.52,22.54,1.87,6.64,1.25,8.35,4.73,9.06,13.9h30V548.42c-1.77-.08-3.52-.24-5.27-.24-12.83,0-25.67.06-38.5-.07a35.79,35.79,0,0,1-9.34-1.22c-6-1.71-8.43-5.12-8.49-11.34-.09-9.5-.06-19,0-28.5,0-7.31,3-11.08,10-12.79a27.88,27.88,0,0,1,6.43-.73c20.17,0,40.34-.14,60.5.07,3.56,0,7.65.62,10.48,2.48s5.35,5.37,5.77,8.47c.87,6.52.26,13.23.26,20.26-6.61,0-12.93.51-19.14-.13C1275.46,523.82,1273.14,520.75,1270.93,509.79Z"/><path d="M869,369.14h30.88v90l1.11.25c1.62-3.18,3-6.57,5-9.46a8,8,0,0,1,5.17-3.26c6.28-.4,12.61-.15,19.41-.15V369.4H962v79.54c0,7.44-3.15,11.43-10.46,12.89a41.36,41.36,0,0,1-7.95.65q-28.25.07-56.48,0a38.92,38.92,0,0,1-8.43-.78c-6.88-1.55-10.08-5.07-10.11-11.7-.12-26.33,0-52.65,0-79A9.88,9.88,0,0,1,869,369.14Z"/><path d="M971,407.5c7.47.39,14.48.14,21.27,1.27,7.44,1.24,9.88,5.06,9.89,12.61,0,8.12,0,16.25,0,24.74h30.62v-22l-7.83-.52c8.78-11.83,9.38-24.77,7.7-38.54h-30.77c2.75-5.5,5-10.24,7.54-14.81.45-.8,2.27-1.16,3.47-1.16,19.48-.07,38.95-.05,59.89-.05-9.06,11.94-9.41,24.9-7.75,38.52l6.3.52c.12.38.39.79.29.94-7.5,10.59-7.49,22.62-7.21,34.88.35,14.94-3.63,18.63-18.83,18.64q-28,0-55.95,0a42.13,42.13,0,0,1-7.94-.65c-7.64-1.49-10.69-5.35-10.7-13.2C971,435.19,971,421.75,971,407.5Z"/><path d="M802.19,539.87h30.58V509.56H763c2.7-5.42,4.82-10,7.33-14.43.54-.95,2.46-1.56,3.76-1.57q37.21-.12,74.43,0a28,28,0,0,1,7.82,1.37c5.17,1.56,8.11,5.08,8.12,10.63q.06,19.24,0,38.47c0,5.08-2.57,8.66-7.31,10.2a33,33,0,0,1-9.73,1.68c-14.82.18-29.63.08-45,.08v30.68H771V531.39c0-9.18,4.14-13.68,13.49-14.31,4.15-.28,8.32-.07,12.49-.08h5.21Z"/><path d="M1116.84,547.8c9.83-11.71,8.81-24.67,8-38.24h-48.21c2.6-5.24,4.67-9.7,7.07-14a4.74,4.74,0,0,1,3.48-2c22.81-.12,45.62-.09,69.27-.09v12.67l1.26.17c1.67-3.34,3.2-6.78,5.1-10,.72-1.21,2.3-2.7,3.51-2.72,12.62-.2,25.25-.12,38.88-.12-2.62,5.23-4.67,9.86-7.26,14.17-.68,1.13-3,1.72-4.62,1.75-10.16.15-20.32.08-30.48.08H1157v22.64l6.62.63c0,.6.18,1.18,0,1.48-7.06,10.14-7.8,21.56-7.11,33.39.37,6.28.07,12.59.07,19.1h-31.3V548.51Z"/><path d="M784.71,424.08l-7.52-.45c2.5-6.36,5.83-12.27,7-18.59s.26-12.91.26-19.84l-7.88-.66c2.52-5,4.81-9.72,7.29-14.32a3.21,3.21,0,0,1,2.43-1.16c9.62-.08,19.25-.05,29.32-.05v12.2l1.11.38c1.69-3.25,3.21-6.61,5.17-9.69.82-1.27,2.56-2.75,3.9-2.77,12.49-.21,25-.13,38.31-.13-2.52,5.15-4.63,9.93-7.23,14.43-.56,1-2.85,1.33-4.35,1.34-12,.11-23.95.06-36.33.06v36.36a19.06,19.06,0,0,0,1.86-3.2c2.38-8.51,7.73-11.74,16.54-10.28,4.34.72,8.89.12,13.61.12v15.93H816v38.32H784.71Z"/><path d="M592.39,509.79l-7.66-.59c2.42-4.9,4.53-9.34,6.83-13.68a3.81,3.81,0,0,1,2.56-1.89c9.78-.14,19.56-.09,29.45-.09v93.19H592.39Z"/><path d="M1111,369v93.15H1080V385.22l-7.77-.7c2.39-5,4.51-9.6,6.89-14.1a3.75,3.75,0,0,1,2.85-1.36C1091.48,369,1100.94,369,1111,369Z"/><path class="cls-1" d="M935,571H905.16V509.84H935Z"/></g></g></svg>