<svg id="Layer_4" data-name="Layer 4" xmlns="http://www.w3.org/2000/svg" viewBox="0 0 1920 1080"><defs><style>.cls-1{fill:#187100;}.cls-2{fill:#abe89e;}.cls-3{fill:#44311b;}</style></defs><path class="cls-1" d="M885.72,424.15c-2.62.58-4.68,2.57-6.33,4.67-7.68,9.78-9.74,23.85-19.69,31.3-3,2.24-6.52,3.71-9.44,6.06-6.37,5.14-8.93,14.18-7.28,22.21s7,15,13.78,19.62,14.76,7.17,22.84,8.53a36.71,36.71,0,0,0,11.59.46c8.25-1.25,15.43-7.12,19.21-14.56s4.37-16.26,2.65-24.42a25.84,25.84,0,0,0-3.85-9.61c-2.61-3.69-6.58-6.3-8.93-10.16-2.49-4.09-2.87-9.07-3.09-13.84s-.38-9.73-2.51-14-6.85-7.7-11.51-6.66"/><path class="cls-2" d="M884.52,419.81c-4.9,1.22-8.26,5.32-10.89,9.37a84.22,84.22,0,0,0-5.57,10.6,89,89,0,0,1-5.47,10.53c-.51.79-1.05,1.55-1.6,2.31.51-.71,0,0-.28.32s-.68.79-1,1.17a25,25,0,0,1-2,1.94l-.55.45c.74-.61.17-.13,0,0-.53.37-1.06.73-1.61,1.08-4,2.53-8.29,4.62-11.33,8.4a26.64,26.64,0,0,0-5.64,12.25c-1.63,9.59,1.47,18.71,7.59,26.13s15.3,12.23,24.58,14.83c9.9,2.76,20.73,4.2,30.17-.74,8.25-4.32,14.11-12.5,16.37-21.44a41.88,41.88,0,0,0,1-14.71c-.56-5.19-1.69-10.55-4.44-15.06a31.2,31.2,0,0,0-4.69-5.75c-.76-.76-1.53-1.5-2.27-2.26-.37-.38-.74-.77-1.1-1.16l-.52-.6c-.22-.26-.55-.68-.16-.17a18,18,0,0,1-1.69-2.79c-.07-.15-.29-.79,0-.08l-.28-.78c-.2-.59-.37-1.2-.52-1.81s-.25-1.1-.35-1.65c0-.28-.08-.56-.13-.83-.13-.73.05.66,0-.07-.1-1.2-.22-2.4-.29-3.61-.28-5-.25-10.17-2-14.88a18,18,0,0,0-10.42-11,13.22,13.22,0,0,0-7.32-.43,4.52,4.52,0,0,0-3.14,5.53,4.6,4.6,0,0,0,5.53,3.14c.86-.17,0,0-.12,0,.24,0,.48,0,.72,0l.53,0c.64,0-.75-.21-.14,0,.4.13.81.21,1.21.33.78.24.08,0-.07,0,.27.14.54.27.8.42s.73.45,1.08.7c-.77-.55.32.32.51.51s.59.64.89,1-.09-.11-.13-.17c.18.25.36.5.52.77.27.43.48.89.73,1.32s0,0,0-.08c.11.26.21.53.3.8a21.5,21.5,0,0,1,.88,3.33c.06.29.11.57.15.86,0,0,.11.74,0,.26s0,.37,0,.48l.06.66c.11,1.16.18,2.33.24,3.49.22,4.6.32,9.39,1.9,13.77s4.51,7.71,7.81,11c.71.7,1.41,1.41,2.08,2.16.31.34.61.7.9,1.06-.5-.62-.07-.1,0,0,.2.3.41.6.6.9s.52.87.75,1.32l.38.78c.06.11.34.78.07.11a29.85,29.85,0,0,1,1.1,3.31c.26,1,.48,2,.67,3,.11.57.2,1.14.29,1.71,0-.09-.07-.66,0-.13l.12,1.08a41.65,41.65,0,0,1,.1,6.7c0,.51-.09,1-.13,1.51,0,.15-.12.88,0,.09,0,.21-.06.42-.1.63-.18,1.14-.42,2.26-.71,3.37s-.61,2.06-1,3.07c-.1.27-.21.53-.32.8,0-.09.26-.55,0-.09s-.53,1.14-.83,1.7a25.6,25.6,0,0,1-1.32,2.26c-.27.42-.56.83-.85,1.24,0,.05-.41.56-.1.14s-.27.34-.35.43a31.69,31.69,0,0,1-4.13,4.06l.17-.14c-.21.14-.4.3-.61.44-.41.28-.82.56-1.24.82a25.27,25.27,0,0,1-2.45,1.34l-.67.31c-.61.28.68-.24,0,0-.41.13-.81.3-1.22.43a21.72,21.72,0,0,1-2.88.74l-.73.12c.11,0,.52-.06,0,0s-1.13.1-1.69.12a35.91,35.91,0,0,1-3.88-.1,51.19,51.19,0,0,1-6.43-1,68,68,0,0,1-6.61-1.68c-1-.3-2-.63-2.92-1-.54-.2-1.09-.41-1.63-.63,0,0-.68-.29-.27-.11l-.67-.3a45.16,45.16,0,0,1-5.76-3.13c-.48-.31-1-.62-1.42-1l-.63-.46c-.05,0-.57-.42-.17-.12s-.61-.49-.77-.62q-.67-.57-1.32-1.17c-.72-.66-1.42-1.35-2.08-2.07-.31-.34-.62-.68-.91-1l-.5-.6c-.12-.14-.65-.87-.14-.17a34.08,34.08,0,0,1-3.06-5c-.08-.18-.71-1.6-.34-.69-.17-.42-.33-.84-.48-1.27a25.44,25.44,0,0,1-.87-3c-.1-.43-.17-.86-.26-1.29,0-.21-.12-.88,0,.1l-.06-.54a24.26,24.26,0,0,1-.12-2.95c0-.43,0-.86,0-1.29s.2-1.65,0-.63a25.83,25.83,0,0,1,.6-2.88c.23-.83.53-1.62.81-2.43-.34,1,.18-.38.28-.6.22-.43.45-.86.69-1.28s.5-.83.77-1.23c.11-.16.83-1.12.5-.72s.46-.52.58-.66c.37-.4.76-.79,1.16-1.16s.63-.57,1-.84c-.54.45,0,0,.12-.07l.71-.49c1-.64,2-1.22,3-1.8a35.92,35.92,0,0,0,9.74-7.57,48.81,48.81,0,0,0,6.37-9.87c1.66-3.3,3.12-6.7,4.78-10,.81-1.62,1.67-3.22,2.61-4.76.47-.77,1-1.52,1.48-2.26l.42-.58c0-.07.41-.55.08-.12s.14-.16.23-.27.41-.5.63-.74.61-.66.94-1,1.11-.83.42-.39c.42-.27.87-.52,1.29-.79-.06,0-.69.22-.21.09.31-.09.6-.19.91-.27a4.54,4.54,0,0,0,3.15-5.53,4.61,4.61,0,0,0-5.54-3.15Z"/><path class="cls-3" d="M889.22,424.5a3.15,3.15,0,0,1,.09-.42c0-.08.18-.47,0-.13a4.48,4.48,0,0,1,.35-.6c-.21.31.09-.09.15-.15a3,3,0,0,1,.25-.25l.28-.24c-.25.22,0,0,.09-.06a25.94,25.94,0,0,1,3-1.63c2.29-1.22,4.64-3.59,3.83-6.42l-1.85,1.85c.16.05.13,0-.08,0l.17.1s-.28-.22,0,0-.12-.27,0,.05l.07.12c.07.15.06.12,0-.08a1.32,1.32,0,0,1,.09.3,1.18,1.18,0,0,1,0,.2c0-.23,0-.26,0-.09s0,.21,0,.32,0,.14,0,.21l0-.18c0,.05-.09.35-.1.41s-.19.29,0,0a1,1,0,0,0-.18.32l0-.07a1.12,1.12,0,0,1-.18.2l-.29.29c-.13.11-.13.11,0,0l-.22.16a6.41,6.41,0,0,1-.77.44c-.05,0-.49.21-.21.1l-.39.15-.93.31c-.6.19-1.2.37-1.78.6a7.48,7.48,0,0,0-3.58,2.6,1.51,1.51,0,0,0,.54,2.06,1.54,1.54,0,0,0,2-.54c.1-.14.11-.15,0,0a1.8,1.8,0,0,1,.19-.2,3.41,3.41,0,0,1,.39-.37c-.24.2.2-.12.25-.15s.32-.19.48-.27.33-.16.5-.24c-.24.11.1,0,.16,0,.35-.13.71-.25,1.06-.36a12.34,12.34,0,0,0,4.23-2,4.64,4.64,0,0,0,1.73-3.79,3.72,3.72,0,0,0-2.46-3.48,1.52,1.52,0,0,0-1.85,1.85c0,.06.08.49.08.29s0,.19,0,.23,0,.08,0-.11a2,2,0,0,1,0,.24c0,.07-.15.41,0,.09a4.18,4.18,0,0,1-.37.65c-.18.28.13-.12-.09.11l-.27.29-.35.32-.22.19-.29.21-.35.22c-.46.28-.95.51-1.44.75-2,1-4.3,2.4-4.66,4.82a1.53,1.53,0,0,0,1,1.84,1.51,1.51,0,0,0,1.84-1Z"/></svg>