<?xml version="1.0" encoding="UTF-8" standalone="no"?>
<!DOCTYPE svg PUBLIC "-//W3C//DTD SVG 1.1//EN" "http://www.w3.org/Graphics/SVG/1.1/DTD/svg11.dtd">
<svg xmlns="http://www.w3.org/2000/svg" xmlns:xlink="http://www.w3.org/1999/xlink" version="1.1" width="612pt" height="792pt" viewBox="0 0 612 792">
<g enable-background="new">
<clipPath id="cp0">
<path d="M 0 0 L 612 0 L 612 792 L 0 792 Z " fill-rule="evenodd"/>
</clipPath>
<g clip-path="url(#cp0)">
<path transform="matrix(.75,0,0,.75,0,0)" d="M 0 0 L 816 0 L 816 1056 L 0 1056 Z " fill="#ffffff"/>
</g>
<clipPath id="cp1">
<path d="M 0 0 L 612 0 L 612 792 L 0 792 Z " fill-rule="evenodd"/>
</clipPath>
<g clip-path="url(#cp1)">
<text fill="#353744" xml:space="preserve" transform="matrix(.75 0 0 .75 36 36)" font-size="40" font-family="ArialMT"><tspan y="45.51953" x="228.81836 255.49837 277.73838 299.97837 313.29838 322.17839 344.41838 366.65837 375.53837 386.65837 413.33836 435.57835 448.89836 471.13835">Andriani Perez</tspan></text>
<text fill="#00ab44" xml:space="preserve" transform="matrix(.75 0 0 .75 36 76.49707)" font-size="24" font-family="ArialMT"><tspan y="22.511719" x="237.29883 254.62683 267.97084 287.96284 301.30683 314.65083 321.3228 334.6668 342.6588 349.3308 365.3388 373.3308 386.6748 400.0188 408.0108 421.3548 441.3468 461.3388 474.6828">Computer Programmer</tspan></text>
<text fill="#666666" xml:space="preserve" transform="matrix(.75 0 0 .75 36 97.19531)" font-size="14.666667" font-family="ArialMT"><tspan y="13.757161" x="314.7932 325.3775 333.52864 336.7848 344.9359 357.14469 365.29579 368.55195 376.70307 380.77503 384.847 394.6226">Columbia, SC</tspan></text>
<text fill="#666666" xml:space="preserve" transform="matrix(.75 0 0 .75 36 109.84424)" font-size="14.666667" font-family="ArialMT"><tspan y="13.757161" x="309.8875 314.76817 322.91926 331.07038 339.2215 344.10215 348.17414 356.32527 364.47639 372.6275 377.50816 385.65925 393.81037 401.9615">(803) 760-6867</tspan></text>
<text fill="#1155cc" xml:space="preserve" transform="matrix(.75 0 0 .75 36 122.493167)" font-size="14.666667" font-family="ArialMT"><tspan y="13.757161" x="274.76405 282.91517 291.06629 299.2174 304.09806 307.3542 315.5053 323.65644 326.9126 335.06373 343.21485 348.0955 356.24659 363.5747 378.45283 386.60395 398.8127 406.9638 410.21998 413.47615 417.5481 424.87623 433.02735">andrianiperez@gmail.com</tspan></text>
<text fill="#1155cc" xml:space="preserve" transform="matrix(.75 0 0 .75 36 135.14209)" font-size="14.666667" font-family="ArialMT"><tspan y="13.757161" x="247.98131 256.13243 260.2044 264.27638 272.4275 279.7556 283.82759 287.89955 291.9715 300.12263 303.37879 307.45075 315.60188 323.753 331.9041 335.97608 343.3042 351.45533 363.6641 367.73609 377.5117 385.66279 393.8139 397.88587 401.95783 410.10896 414.9896 423.1407 431.2918 441.0674 445.94807 454.09919 457.35536 460.6115 463.86769">https://github.com/ShatteredArdilla</tspan></text>
<text fill="#00ab44" xml:space="preserve" transform="matrix(.75 0 0 .75 36 160.43994)" font-size="24" font-family="ProximaNova"><tspan y="22.08" x="0 13.65596 30.455918 47.255876 63.40782 77.59177 91.27173 97.007709 115.367649">EDUCATION</tspan></text>
<text xml:space="preserve" transform="matrix(.75 0 0 .75 36 182.36394)" font-size="14.666667" font-family="Arial" font-weight="bold"><tspan y="27.090495" x="0 10.584274 19.536896 23.608872 31.75998 39.911088 45.614717 53.765825 57.8378 62.718446 70.86955 74.94153 83.89415 88.774799 92.84677 102.622379 111.575 120.52762 125.408267 134.36089 138.43286 149.01714 157.16825 162.87187 171.8245 175.89647 179.96845 188.92107 197.07218 201.95282 206.0248 216.60907 225.56169 229.63367 238.58629 251.61804 260.57069 264.64265 272.79377 276.86573 280.93769 290.7133">University of South Carolina; Columbia, SC</tspan></text>
<text fill="#666666" xml:space="preserve" transform="matrix(.75 0 0 .75 36 182.36394)" font-size="14.666667" font-family="Arial" font-style="italic"><tspan y="27.090495" x="305.36958 310.2502 314.3222 324.0978 332.2489 339.57704 347.72816 355.87928 359.13545 367.28657">- Bachelor</tspan></text>
<text fill="#666666" xml:space="preserve" transform="matrix(.75 0 0 .75 36 182.36394)" font-size="14.666667" font-family="Arial" font-style="italic"><tspan y="27.090495" x="376.2391 384.3902 388.46217 392.53413 402.30973 409.63786 412.89399 421.0451 429.19624 436.52436 444.67549 448.74745 452.0036 460.15473 464.22669 474.81098 482.9621 495.17088 503.32197 511.47309 515.54507 523.69619 528.5768 532.64877 542.4243 549.75247 553.0086 561.1597 569.31088 576.639">of Science in Computer Science</tspan></text>
<text fill="#666666" xml:space="preserve" transform="matrix(.75 0 0 .75 36 205.01288)" font-size="16" font-family="TimesNewRomanPSMT"><tspan y="20.270834" x="0 9.776 17.776001 25.776001 32.88 39.984 44.432004 51.536005 59.536005 63.536005 71.536 76.864009 83.96801 91.96801 99.96801 107.072017 111.52001 115.96801 123.96801 131.96802 135.96802 150.19202 157.29602 165.29602 169.29602 177.29602 185.29602 193.29602">Expected graduation May 2024</tspan></text>
<text xml:space="preserve" transform="matrix(.75 0 0 .75 36 222.8117)" font-size="14.666667" font-family="ArialMT"><tspan y="13.757161" x="24">&#x25cf;</tspan></text>
<text xml:space="preserve" transform="matrix(.75 0 0 .75 36 222.8117)" font-size="14.666667" font-family="ArialMT"><tspan y="13.757161" x="48 59.4001 68.08716">GPA</tspan></text>
<text xml:space="preserve" transform="matrix(.75 0 0 .75 36 235.46063)" font-size="14.666667" font-family="ArialMT"><tspan y="13.757161" x="72">&#x25cb;</tspan></text>
<text xml:space="preserve" transform="matrix(.75 0 0 .75 36 235.46063)" font-size="14.666667" font-family="ArialMT"><tspan y="13.757161" x="96 104.15111 108.22308 116.37419">3.54</tspan></text>
<text xml:space="preserve" transform="matrix(.75 0 0 .75 36 248.10956)" font-size="14.666667" font-family="ArialMT"><tspan y="19.090495" x="0 8.151108 16.302216 24.453324 32.60443 40.75554 48.906648 57.057756 65.20886 73.35997 81.51108 89.662189 97.81329 105.9644 114.11551 122.26662 130.41773 138.56884 146.71994 154.87105 163.02216 171.17327 179.32437 187.47548 195.62659 203.7777 211.9288 220.07991 228.23102 236.38213 244.53324 252.68434 260.83546 268.98658 277.1377 285.28883 293.43995 301.59107 309.7422 317.8933 326.04444 334.19557 342.34669 350.4978 358.64894 366.80006 374.95118 383.1023 391.25343 399.40455 407.55567 415.7068 423.8579 432.00904 440.16017 448.31129 456.4624 464.61354 472.76466 480.91578 489.0669 497.21803 505.36915 513.52029 521.6714 529.8225 537.97366 546.12478 554.2759 562.427 570.5781 578.72927 586.8804 595.0315 603.1826 611.33377">____________________________________________________________________________</tspan></text>
<text fill="#00ab44" xml:space="preserve" transform="matrix(.75 0 0 .75 36 267.28828)" font-size="24" font-family="ProximaNova"><tspan y="22.08" x="0 13.65596 29.30391 43.39186 57.04782 71.639789 77.37576 91.03172 108.02367 124.24762 137.90358 145.00756 159.59952 173.25548 185.49544 199.1514 213.64734 229.43929 246.43123 260.1112 266.3032 282.52717 300.8871 317.68705 332.279 346.34297 359.9989 380.71083 399.07075 413.66273">EXPERIENCE/RELEVANT COURSEWORK</tspan></text>
<text xml:space="preserve" transform="matrix(.75 0 0 .75 36 289.21226)" font-size="14.666667" font-family="Arial" font-weight="bold"><tspan y="27.090495" x="0 10.584274 20.359879 30.944153 40.719758 48.870866 57.021974 65.17308 69.245059 79.82933 83.901309 94.48558 104.261188 114.84546 124.62106 132.77217 140.92328 149.07439 153.95503 158.02701 168.61128 177.5639 181.63588 190.5885 203.62026 212.57288 216.64485 224.79596 228.86794 232.93991 242.71552">CSCE145 &#x0026; CSCE146; Columbia, SC</tspan></text>
<text fill="#666666" xml:space="preserve" transform="matrix(.75 0 0 .75 36 311.86119)" font-size="13.333333" font-family="ArialMT"><tspan y="17.839844" x="0 8.889755 16.30223 23.714707 31.127182 37.791246 41.494234 45.19722 48.900209 56.312685 63.72516 71.137638 78.55011 82.2531 86.69147 90.394458 101.49689 108.90936 115.573429 119.27641 126.68889 134.10137 141.51384">August  2020 - May 2021</tspan></text>
<text xml:space="preserve" transform="matrix(.75 0 0 .75 36 327.36024)" font-size="14.666667" font-family="ArialMT"><tspan y="19.090495" x="24">&#x25cf;</tspan></text>
<text xml:space="preserve" transform="matrix(.75 0 0 .75 36 327.36024)" font-size="14.666667" font-family="ArialMT"><tspan y="19.090495" x="48 58.584276 66.73538 78.94415 87.09526 95.24637 99.318347 107.46945 112.3501 116.42207 126.19768 133.5258 136.78195 144.93306 153.08417 160.4123 168.5634 172.63538 179.9635 188.11461 196.26572 201.14636 208.47449 216.6256 220.69757 228.84868 232.65567 236.72765 244.87876 249.7594 257.91053 266.06166 270.1336 278.28474 285.61286 289.6848 293.75679 301.9079 310.05903 314.131 324.7153 332.86643 336.1226 343.4507 351.60185 356.48249 363.8106 367.06675 371.1387">Computer Science course offered by the University</tspan></text>
<text xml:space="preserve" transform="matrix(.75 0 0 .75 36 327.36024)" font-size="14.666667" font-family="ArialMT"><tspan y="19.090495" x="382.53874 390.68983 394.76179 398.83375 408.60935 416.76045 424.91157 428.98353 437.13465 441.2066 451.7909 459.94203 464.82267 472.97377 476.22993 479.48609 487.6372">of South Carolina</tspan></text>
<text xml:space="preserve" transform="matrix(.75 0 0 .75 36 346.5389)" font-size="14.666667" font-family="ArialMT"><tspan y="19.090495" x="24">&#x25cf;</tspan></text>
<text xml:space="preserve" transform="matrix(.75 0 0 .75 36 346.5389)" font-size="14.666667" font-family="ArialMT"><tspan y="19.090495" x="52.071977 56.14395 64.29506 71.623188 75.69516 78.95131 82.20746 85.46361 92.79173 96.86371 105.01482 109.08679 117.2379 120.49405 127.822177 135.1503 138.40645 146.55756 149.8137 153.06986 161.22097 169.37207 173.44405 181.59516 185.66713 189.7391 197.89022 206.04132 213.36945 221.52056 224.7767 232.92781 241.07892 244.33507 252.48618 260.63728 264.70924 272.86036 281.01148 289.1626 292.41877 295.67494 299.7469 307.075 311.14698 319.29808 324.1787 332.3298 340.48094 345.36158 353.51268 365.72145">Instills a discipline of developing quality programs</tspan></text>
<text xml:space="preserve" transform="matrix(.75 0 0 .75 36 346.5389)" font-size="14.666667" font-family="ArialMT"><tspan y="19.090495" x="377.12156 385.27265 393.42378 400.7519 408.903 417.05415 421.1261 429.27723 437.42835 441.5003 449.65144 457.80256 465.95368 474.1048 478.17677 485.50489 493.656 497.72798 501.79994 512.3842 520.53536 525.416 533.56716 537.6391 545.7902 553.94137 561.2695 564.52566 572.67678 580.8279 584.89987 593.05099 597.93167 606.08279 613.4109 617.48287 620.739 628.06716">based on good software design practice</tspan></text>
<text xml:space="preserve" transform="matrix(.75 0 0 .75 36 365.71763)" font-size="14.666667" font-family="ArialMT"><tspan y="19.090495" x="24">&#x25cf;</tspan></text>
<text xml:space="preserve" transform="matrix(.75 0 0 .75 36 365.71763)" font-size="14.666667" font-family="ArialMT"><tspan y="19.090495" x="48 52.071977 60.223085 67.55121 71.623188 74.87933 78.13548 81.39163 88.71976 92.79173 100.94284 105.01482 113.165927 116.42207 123.7502 131.07833 134.33448 142.48558 145.74173 148.99788 157.14899 165.3001 169.37207 177.52318 181.59516 185.66713 193.81824 201.96935 209.29747 217.44858 220.70473 228.85584 237.00695 240.26309 248.4142 256.5653 260.63728 268.7884 276.9395 285.09065 288.3468 291.60298 295.67494 303.00306 307.075 315.2261 320.10676 328.25785 336.40898 341.2896 349.4407 361.64949">Instills a discipline of developing quality programs</tspan></text>
<text xml:space="preserve" transform="matrix(.75 0 0 .75 36 365.71763)" font-size="14.666667" font-family="ArialMT"><tspan y="19.090495" x="373.04957 381.20069 389.3518 396.67994 404.83106 412.98219 417.05415 425.20527 433.35639 437.42835 445.57948 453.7306 461.8817 470.03285 474.1048 481.43293 489.58406 493.656 497.72798 508.31227 516.4634 521.344 529.4951 533.5671 541.7182 549.8693 557.19747 560.4536 568.60476 576.75588 580.8278 588.97897 593.8596 602.01077 609.33889 613.4108 616.667 623.9951">based on good software design practice</tspan></text>
<text xml:space="preserve" transform="matrix(.75 0 0 .75 36 384.89637)" font-size="14.666667" font-family="ArialMT"><tspan y="13.757161" x="24">&#x25cf;</tspan></text>
<text xml:space="preserve" transform="matrix(.75 0 0 .75 36 384.89637)" font-size="14.666667" font-family="ArialMT"><tspan y="13.757161" x="48 58.584276 66.73538 78.94415 87.09526 95.24637 99.318347 107.46945 112.3501 116.42207 126.19768 133.5258 136.78195 144.93306 153.08417 160.4123 168.5634 172.63538 179.9635 188.11461 196.26572 201.14636 208.47449 216.6256 220.69757 228.84868 232.65567 236.72765 244.87876 249.7594 257.91053 266.06166 270.1336 278.28474 285.61286 289.6848 300.2691 308.4202 311.67637 319.0045 327.1556 332.03627 339.36439 342.6205 346.69248 354.0206 358.09257 366.24369 370.31565 374.3876 384.1632 392.3143 400.46543 404.53739">Computer Science course offered by University of South</tspan></text>
<text xml:space="preserve" transform="matrix(.75 0 0 .75 36 384.89637)" font-size="14.666667" font-family="ArialMT"><tspan y="13.757161" x="416.7605 427.3448 435.4959 440.37657 448.52766 451.7838 455.03999 463.1911">Carolina</tspan></text>
<text xml:space="preserve" transform="matrix(.75 0 0 .75 36 400.07508)" font-size="14.666667" font-family="ArialMT"><tspan y="13.757161" x="24">&#x25cf;</tspan></text>
<text xml:space="preserve" transform="matrix(.75 0 0 .75 36 400.07508)" font-size="14.666667" font-family="ArialMT"><tspan y="13.757161" x="48 55.328126 63.479234 70.80736">Java</tspan></text>
<text xml:space="preserve" transform="matrix(.75 0 0 .75 36 430.75279)" font-size="14.666667" font-family="Arial" font-weight="bold"><tspan y="27.090495" x="0 10.584274 20.359879 30.944153 40.719758 48.870866 57.021974 65.17308 70.05373 74.1257 84.70998 93.6626 97.73457 106.687198 119.71895 128.67157 132.74355 140.89466 144.96663 149.0386 158.81421">CSCE247; Columbia, SC</tspan></text>
<text fill="#666666" xml:space="preserve" transform="matrix(.75 0 0 .75 36 453.40174)" font-size="13.333333" font-family="ArialMT"><tspan y="17.839844" x="0 11.102432 18.514908 25.17897 28.881958 36.294435 43.70691 51.119386 58.53186 62.234849 66.67322 70.376209 77.04027 84.45274 91.86522 99.277698 102.98068 110.39316 117.80563 125.21811">May 2021 - June 2021</tspan></text>
<text xml:space="preserve" transform="matrix(.75 0 0 .75 36 468.90077)" font-size="14.666667" font-family="ArialMT"><tspan y="19.090495" x="24">&#x25cf;</tspan></text>
<text xml:space="preserve" transform="matrix(.75 0 0 .75 36 468.90077)" font-size="14.666667" font-family="ArialMT"><tspan y="19.090495" x="48 57.775606 65.92671 69.99869 74.07066 84.65494 92.806049 97.68669 105.8378 109.909778 119.68538 127.83649 135.9876 139.24375 147.39485 155.54596 163.69707 168.57772 171.83386 179.98497 188.13608 192.20806 199.53618 207.68729 215.8384 220.71904 228.04717 236.19828 240.27025 248.42136 252.22835 256.30033 264.45143 269.33207 277.48316 285.63429 289.70625 297.85737 305.1855 309.25746 313.3294 321.48054 329.63166 333.7036 344.2879 352.43904 355.6952 363.02333 371.17445 376.05509 383.3832 386.63935 390.7113">Software Engineering course offered by the University</tspan></text>
<text xml:space="preserve" transform="matrix(.75 0 0 .75 36 468.90077)" font-size="14.666667" font-family="ArialMT"><tspan y="19.090495" x="402.1114 410.2625 414.33448 418.40644 428.18205 436.33314 444.48426 448.5562 456.70735 460.7793 471.3636 479.5147 484.39537 492.54646 495.8026 499.05879 507.2099">of South Carolina</tspan></text>
<text xml:space="preserve" transform="matrix(.75 0 0 .75 36 488.07945)" font-size="14.666667" font-family="ArialMT"><tspan y="13.757161" x="24">&#x25cf;</tspan></text>
<text xml:space="preserve" transform="matrix(.75 0 0 .75 36 488.07945)" font-size="14.666667" font-family="ArialMT"><tspan y="13.757161" x="48 57.775606 61.84758 69.99869 78.149799 86.3009 94.45201 98.52399 105.85211 109.92409 118.075199 126.2263 130.29828 134.37026 142.52136 147.40201 155.55312 163.70423 171.85533 180.00644 184.07842 192.22953 195.48567 198.74182 202.8138 206.88578 215.03688 223.18799 227.25997 234.58809 238.66007 246.81118 254.96228 262.2904 266.36238 271.243 279.3941 287.54524 295.69636 298.9525 303.83317 311.98426 320.13539 324.20735 328.2793 336.43043 340.50239 352.71116 360.86225 368.19038">Students go through all the steps required to make</tspan></text>
<text xml:space="preserve" transform="matrix(.75 0 0 .75 36 488.07945)" font-size="14.666667" font-family="ArialMT"><tspan y="13.757161" x="380.41349 388.56459 392.63655 396.7085 404.85963 408.11579 411.37196 415.4439 423.59504 431.74617 439.89729 443.96925 448.0412 456.19233 464.34346 471.67158 475.74354 478.9997 487.15083 495.30195 503.45307 506.70924 510.7812 518.9323 522.1885 530.3396 537.6677 545.81887 549.8908 558.04196 562.1139 566.18588 573.514 581.6651 585.73709 589.809 600.3933 608.54446 613.42507">a full and functional piece of software</tspan></text>
<text xml:space="preserve" transform="matrix(.75 0 0 .75 36 503.25816)" font-size="14.666667" font-family="ArialMT"><tspan y="13.757161" x="24">&#x25cf;</tspan></text>
<text xml:space="preserve" transform="matrix(.75 0 0 .75 36 503.25816)" font-size="14.666667" font-family="ArialMT"><tspan y="13.757161" x="48 55.328126 63.479234 70.80736 78.958469 83.03044 87.91109 98.49536 106.64647 113.974597 117.23074 125.38185 133.53296 137.60494 147.38054 155.53165 159.60363 163.6756 171.8267 176.70735 184.85846 192.18659 197.06723 201.1392 205.21118 216.61128 219.86743 223.9394 228.01139 232.08336 243.48346 246.73961 250.81159 261.39588 269.547 277.69813 281.77009 285.84205 295.61766 306.2019 316.7862 327.37049 339.57926 343.65126 347.7232 358.3075 370.51628">Java (Design Patterns), Git, GitHub, SCRUM, UML</tspan></text>
<text xml:space="preserve" transform="matrix(.75 0 0 .75 36 518.4369)" font-size="14.666667" font-family="Arial" font-weight="bold"><tspan y="27.090495" x="0 9.775604 17.926712 23.63034 31.781449 40.73407 49.68669 57.8378 61.909776 65.98175 79.55003 87.70114 96.65376 104.80487 108.87685 113.75749">Personal Website</tspan></text>
<text fill="#666666" xml:space="preserve" transform="matrix(.75 0 0 .75 36 541.0858)" font-size="13.333333" font-family="ArialMT"><tspan y="17.839844" x="0 11.102432 18.514908 25.17897 28.881958 36.294435 43.70691 51.119386 58.53186 62.234849 66.67322 70.376209 74.07919 84.44624 91.85872 99.271198 106.68367 109.64476 117.057239">May 2020 -  Ongoing</tspan></text>
<text xml:space="preserve" transform="matrix(.75 0 0 .75 36 556.58486)" font-size="14.666667" font-family="ArialMT"><tspan y="19.090495" x="24">&#x25cf;</tspan></text>
<text xml:space="preserve" transform="matrix(.75 0 0 .75 36 556.58486)" font-size="14.666667" font-family="ArialMT"><tspan y="19.090495" x="48 57.775606 65.92671 70.80736 78.13548 86.28659 94.4377 102.588809 105.844959 109.91693 117.245059 120.501209 124.57318 132.72429 136.79627 140.86824 144.94022 152.26834 157.14899 165.3001 173.4512 177.52318 185.67429 193.8254 197.89737 201.96935 210.12046 214.19243 217.44858 225.59969 233.7508 238.63144 246.78255 250.85453 254.9265 259.80714 267.95826 276.10939 280.18135 285.06199 293.21308 301.3642 309.51533 313.58729 324.17158 332.3227 340.47383 344.54579 352.6969 360.84803 368.17616 376.32728 379.58345 387.73457 395.88569 408.09446 416.24555 424.39668 428.46864">Personal site I created to learn front-end web development.</tspan></text>
<text xml:space="preserve" transform="matrix(.75 0 0 .75 36 575.76358)" font-size="14.666667" font-family="ArialMT"><tspan y="19.090495" x="24">&#x25cf;</tspan></text>
<text xml:space="preserve" transform="matrix(.75 0 0 .75 36 575.76358)" font-size="14.666667" font-family="ArialMT"><tspan y="19.090495" x="48 61.568284 66.44893 74.60004 78.67201 86.82312 90.895099 94.96707 103.11818 111.26929 115.34126 125.92554 134.07665 142.22776 149.55588 152.81203 156.884 165.03511 169.10709 173.17906 178.05971 186.21082 198.41959 202.49156 209.81969 217.14781 222.02846 230.17957 234.25154 241.57967 249.73078 253.80275 257.87474 266.02583 274.17695 282.32807 286.40003 291.28068 299.43177 310.01606 314.8967 323.0478 327.11976 335.27088 339.34284 342.599 346.67097 350.74293 362.9517 371.10279 374.35896 378.4309 381.68708 389.8382 393.09437">Wrote the website from scratch, and rewrote it multiple</tspan></text>
<text xml:space="preserve" transform="matrix(.75 0 0 .75 36 575.76358)" font-size="14.666667" font-family="ArialMT"><tspan y="19.090495" x="405.31745 409.3894 412.64558 424.85435 433.00544 440.33357 444.40553 448.47749 456.6286 460.70057 463.95674 472.10786 480.25898 485.13963 493.2907 497.36268 505.5138 513.6649 524.2492 528.32119 532.3931 540.54428 544.6162 555.2005 560.0812 563.33737 567.4093 575.5604 579.6324 586.9605 595.11166 603.26278 611.4139 615.48587 619.5578 627.7089 635.86007 639.932 644.00399 647.26016 654.58828 658.6602 666.81137 674.96249 682.2906 689.6187 693.6907 697.76266">times to learn how to write code that is easy to</tspan></text>
<text xml:space="preserve" transform="matrix(.75 0 0 .75 36 594.94229)" font-size="14.666667" font-family="ArialMT"><tspan y="13.757161" x="48 55.328126 63.479234 71.63034 79.78145 87.932559 96.083667 100.15564 108.30675 116.457859 124.60896 128.68094 136.83205 144.98316 153.13426 161.28537">change and adapt</tspan></text>
<text xml:space="preserve" transform="matrix(.75 0 0 .75 36 610.121)" font-size="14.666667" font-family="ArialMT"><tspan y="13.757161" x="24">&#x25cf;</tspan></text>
<text xml:space="preserve" transform="matrix(.75 0 0 .75 36 610.121)" font-size="14.666667" font-family="ArialMT"><tspan y="13.757161" x="48 58.584276 67.536899 79.74567 87.896778 91.96875 96.040729 106.625 116.400608 126.17621 130.24819 134.32016 144.90444 153.05554 160.38367 163.63982 171.79093">HTML, CSS, Design</tspan></text>
<text xml:space="preserve" transform="matrix(.75 0 0 .75 36 625.2997)" font-size="14.666667" font-family="Arial" font-weight="bold"><tspan y="27.090495" x="0 9.775604 17.926712 26.07782 30.149796 34.22177 43.174394 48.05504 52.127016 62.71129 66.783267 70.85524 74.927219 79.80786 87.95897 93.6626 101.813709 109.96481">Seal of Biliteracy</tspan></text>
<text fill="#666666" xml:space="preserve" transform="matrix(.75 0 0 .75 36 625.2997)" font-size="14.666667" font-family="Arial" font-style="italic"><tspan y="27.090495" x="122.1879 127.06854 131.14052 140.91613 145.79677 153.94788 158.01985 161.276 168.60413 171.86028 180.01139 188.16249 195.49062 202.81874 206.89072 210.14687 218.29798 222.36995 226.44193 237.0262 245.1773 249.24929 257.4004 262.28105 266.35304 278.5618 286.7129 291.59355 299.74464 303.8166 307.07276 315.22389 323.375 331.52613 339.67726 347.82838 355.9795 364.1306">- Proficiency in two or more languages</tspan></text>
<text xml:space="preserve" transform="matrix(.75 0 0 .75 36 647.9486)" font-size="14.666667" font-family="ArialMT"><tspan y="19.090495" x="24">&#x25cf;</tspan></text>
<text xml:space="preserve" transform="matrix(.75 0 0 .75 36 647.9486)" font-size="14.666667" font-family="ArialMT"><tspan y="19.090495" x="48 57.51062 68.094898 76.246 81.12665 89.277759 93.34973 101.50084 104.75699 112.08511 120.23622 128.38733 132.4593 136.53128 144.68239 148.75437 156.08249 160.15447 168.30558 176.45668 184.60779 192.7589 196.83087 204.159 208.23097 218.81525 226.96636 235.11746 239.18944 247.34055 255.49166 262.81977 270.9709 275.04286 283.19398 287.26594 291.3379 299.489 302.74519 310.8963 319.04743 327.19856 331.2705 339.42164 342.6778 350.82893 358.98005 363.052 366.30818 374.4593 381.7874 389.93855">Award given to students who have attained high level</tspan></text>
<text xml:space="preserve" transform="matrix(.75 0 0 .75 36 647.9486)" font-size="14.666667" font-family="ArialMT"><tspan y="19.090495" x="397.26655 409.4753 417.6264 424.95454 429.0265 437.1776 442.05827 449.38639 453.45838 461.6095 465.68147 469.75343 473.82539 484.40968 492.5608 496.63276 504.78388 509.66453 513.7365 525.9453 534.09646 538.97708 547.1282 551.20016 554.4563 562.6074 570.75857 578.90969 587.0608 595.2119 603.36306 611.51419">mastery of two or more languages</tspan></text>
<text xml:space="preserve" transform="matrix(.75 0 0 .75 36 664.59756)" font-size="14.666667" font-family="ArialMT"><tspan y="13.757161" x="0 8.151108 16.302216 24.453324 32.60443 40.75554 48.906648 57.057756 65.20886 73.35997 81.51108 89.662189 97.81329 105.9644 114.11551 122.26662 130.41773 138.56884 146.71994 154.87105 163.02216 171.17327 179.32437 187.47548 195.62659 203.7777 211.9288 220.07991 228.23102 236.38213 244.53324 252.68434 260.83546 268.98658 277.1377 285.28883 293.43995 301.59107 309.7422 317.8933 326.04444 334.19557 342.34669 350.4978 358.64894 366.80006 374.95118 383.1023 391.25343 399.40455 407.55567 415.7068 423.8579 432.00904 440.16017 448.31129 456.4624 464.61354 472.76466 480.91578 489.0669 497.21803 505.36915 513.52029 521.6714 529.8225 537.97366 546.12478 554.2759 562.427 570.5781 578.72927 586.8804 595.0315 603.1826 611.33377">____________________________________________________________________________</tspan></text>
</g>
<clipPath id="cp2">
<path d="M 0 0 L 612 0 L 612 792 L 0 792 Z " fill-rule="evenodd"/>
</clipPath>
<g clip-path="url(#cp2)">
<path transform="matrix(.75,0,0,.75,36,122.493167)" stroke-width="1.3333334" stroke-linecap="butt" stroke-miterlimit="10" stroke-linejoin="miter" fill="none" stroke="#1155cc" d="M 274.66667 16.009116 L 445.33335 16.009116 "/>
<path transform="matrix(.75,0,0,.75,36,135.14209)" stroke-width="1.3333334" stroke-linecap="butt" stroke-miterlimit="10" stroke-linejoin="miter" fill="none" stroke="#1155cc" d="M 248 15.14388 L 472 15.14388 "/>
</g>
</g>
</svg>
